M48
INCH,TZ
T1C0.020
T2C0.025
T3C0.040
T4C0.125
%
G90
G05
T1
X45400Y-33200
X46000Y-33200
X46600Y-33200
X46600Y-40200
X47200Y-33200
X47200Y-40200
X47800Y-33200
X47800Y-40200
X48400Y-33200
X48400Y-40200
X49000Y-33200
X49000Y-40200
X49600Y-40200
X50150Y-33200
X50200Y-40200
X50750Y-33200
X50800Y-40200
X51350Y-33200
T2
X51350Y-38350
X52375Y-36725
X52375Y-37525
X52375Y-38300
X52400Y-34850
X52400Y-36125
X52425Y-35575
X52750Y-32475
X53050Y-36275
X53050Y-37150
X53050Y-37875
X53050Y-38850
X53425Y-32500
X53525Y-39400
X53575Y-38300
X53975Y-38850
X54000Y-37875
X54175Y-32500
X54475Y-38300
X54475Y-39400
X55100Y-32500
X55400Y-36225
X55850Y-32525
X55850Y-33400
X55875Y-34250
X55875Y-35125
X55875Y-35900
X67300Y-37200
X67300Y-43150
T3
X34300Y-25900
X34300Y-27200
X35300Y-25900
X35300Y-27200
X36300Y-25900
X36300Y-27200
X37300Y-25900
X37300Y-27200
X37900Y-46200
X37900Y-47500
X38300Y-25900
X38300Y-27200
X38900Y-46200
X38900Y-47500
X39300Y-25900
X39300Y-27200
X39900Y-46200
X39900Y-47500
X40300Y-25900
X40300Y-27200
X40900Y-46200
X40900Y-47500
X41300Y-25900
X41300Y-27200
X41900Y-46200
X41900Y-47500
X42900Y-25900
X42900Y-27200
X42900Y-46200
X42900Y-47500
X43450Y-34200
X43450Y-35200
X43450Y-36200
X43450Y-37200
X43450Y-38200
X43450Y-39200
X43900Y-25900
X43900Y-27200
X44900Y-25900
X44900Y-27200
X44900Y-46200
X44900Y-47500
X45900Y-25900
X45900Y-27200
X45900Y-46200
X45900Y-47500
X46900Y-25900
X46900Y-27200
X46900Y-46200
X46900Y-47500
X47900Y-25900
X47900Y-27200
X47900Y-46200
X47900Y-47500
X48900Y-27200
X48900Y-46200
X48900Y-47500
X49900Y-27200
X49900Y-46200
X49900Y-47500
X50900Y-46200
X50900Y-47500
X51900Y-25900
X51900Y-27200
X51900Y-46200
X51900Y-47500
X52900Y-25900
X52900Y-27200
X53900Y-25900
X53900Y-27200
X53900Y-46200
X53900Y-47500
X54900Y-25900
X54900Y-27200
X54900Y-46200
X54900Y-47500
X55900Y-27200
X55900Y-46200
X55900Y-47500
X56900Y-27200
X56900Y-46200
X56900Y-47500
X57900Y-25900
X57900Y-27200
X57900Y-46200
X57900Y-47500
X58900Y-25900
X58900Y-27200
X58900Y-46200
X58900Y-47500
X59900Y-46200
X59900Y-47500
X60900Y-46200
X60900Y-47500
X61900Y-28200
X61900Y-29200
X61900Y-30200
X61900Y-31200
X61900Y-32200
X61900Y-33200
X61900Y-34200
X61900Y-35200
X61900Y-36200
X61900Y-37200
X61900Y-38200
X61900Y-39200
X61900Y-40200
X61900Y-41200
X61900Y-42200
X61900Y-43200
X61900Y-44200
X62900Y-28200
X62900Y-29200
X62900Y-30200
X62900Y-31200
X62900Y-32200
X62900Y-33200
X62900Y-34200
X62900Y-35200
X62900Y-36200
X62900Y-37200
X62900Y-38200
X62900Y-39200
X62900Y-40200
X62900Y-41200
X62900Y-42200
X62900Y-43200
X62900Y-44200
X64000Y-28200
X64000Y-29200
X64000Y-30200
X64000Y-31200
X64000Y-32200
X64000Y-33200
X64000Y-34200
X64000Y-35200
X64000Y-36200
X64000Y-37200
X64000Y-38200
X64000Y-39200
X64000Y-40200
X64000Y-41200
X64000Y-42200
X64000Y-43200
X64000Y-44200
X65000Y-28200
X65000Y-29200
X65000Y-30200
X65000Y-31200
X65000Y-32200
X65000Y-33200
X65000Y-34200
X65000Y-35200
X65000Y-36200
X65000Y-37200
X65000Y-38200
X65000Y-39200
X65000Y-40200
X65000Y-41200
X65000Y-42200
X65000Y-43200
X65000Y-44200
X66020Y-26110
X66020Y-27890
X66020Y-45510
X66020Y-47290
X68580Y-26110
X68580Y-27890
X68580Y-45510
X68580Y-47290
T4
X34800Y-30450
X34800Y-46900
X58400Y-30200
X63450Y-46900
X67300Y-30200
T0
M30
