G04 (created by PCBNEW-RS274X (2011-aug-04)-testing) date Tue 30 Aug 2011 10:21:52 AM EDT*
G01*
G70*
G90*
%MOIN*%
G04 Gerber Fmt 3.4, Leading zero omitted, Abs format*
%FSLAX34Y34*%
G04 APERTURE LIST*
%ADD10C,0.006000*%
%ADD11C,0.160000*%
%ADD12O,0.070000X0.100000*%
%ADD13C,0.070000*%
%ADD14R,0.035000X0.055000*%
%ADD15R,0.080000X0.060000*%
%ADD16O,0.060000X0.120000*%
%ADD17R,0.070000X0.070000*%
%ADD18C,0.080000*%
%ADD19C,0.040000*%
%ADD20R,0.036000X0.058100*%
%ADD21R,0.036000X0.070000*%
%ADD22R,0.070000X0.036000*%
%ADD23R,0.058100X0.036000*%
%ADD24R,0.144000X0.080000*%
%ADD25R,0.040000X0.080000*%
%ADD26R,0.055000X0.035000*%
%ADD27C,0.035000*%
%ADD28C,0.008000*%
%ADD29C,0.010000*%
G04 APERTURE END LIST*
G54D10*
G54D11*
X34800Y-30450D03*
G54D12*
X49900Y-27200D03*
X49900Y-46200D03*
X48900Y-46200D03*
X47900Y-46200D03*
X44900Y-46200D03*
X45900Y-46200D03*
X46900Y-46200D03*
X42900Y-46200D03*
X41900Y-46200D03*
X40900Y-46200D03*
X38900Y-46200D03*
X37900Y-46200D03*
X48900Y-27200D03*
X47900Y-27200D03*
X46900Y-27200D03*
X45900Y-27200D03*
X44900Y-27200D03*
X43900Y-27200D03*
X42900Y-27200D03*
X41300Y-27200D03*
X40300Y-27200D03*
X39300Y-27200D03*
X38300Y-27200D03*
X37300Y-27200D03*
X36300Y-27200D03*
X35300Y-27200D03*
X34300Y-27200D03*
X39900Y-46200D03*
X51900Y-27200D03*
X52900Y-27200D03*
X53900Y-27200D03*
X54900Y-27200D03*
X55900Y-27200D03*
X56900Y-27200D03*
X57900Y-27200D03*
X58900Y-27200D03*
G54D13*
X61900Y-28200D03*
X62900Y-28200D03*
X61900Y-29200D03*
X62900Y-29200D03*
X61900Y-30200D03*
X62900Y-30200D03*
X61900Y-31200D03*
X62900Y-31200D03*
X61900Y-32200D03*
X62900Y-32200D03*
X61900Y-33200D03*
X62900Y-33200D03*
X61900Y-34200D03*
X62900Y-34200D03*
X61900Y-35200D03*
X62900Y-35200D03*
X61900Y-36200D03*
X62900Y-36200D03*
X61900Y-37200D03*
X62900Y-37200D03*
X61900Y-38200D03*
X62900Y-38200D03*
X61900Y-39200D03*
X62900Y-39200D03*
X61900Y-40200D03*
X62900Y-40200D03*
X61900Y-41200D03*
X62900Y-41200D03*
X61900Y-42200D03*
X62900Y-42200D03*
X61900Y-43200D03*
X62900Y-43200D03*
X61900Y-44200D03*
X62900Y-44200D03*
G54D12*
X50900Y-46200D03*
X51900Y-46200D03*
X53900Y-46200D03*
X54900Y-46200D03*
X55900Y-46200D03*
X56900Y-46200D03*
X57900Y-46200D03*
X58900Y-46200D03*
X59900Y-46200D03*
X60900Y-46200D03*
G54D14*
X44625Y-43150D03*
X45375Y-43150D03*
X44625Y-44150D03*
X45375Y-44150D03*
X45375Y-42150D03*
X44625Y-42150D03*
G54D15*
X38600Y-43750D03*
X38600Y-42450D03*
X43000Y-43750D03*
X43000Y-42450D03*
G54D14*
X44625Y-41150D03*
X45375Y-41150D03*
X52525Y-31850D03*
X51775Y-31850D03*
X52125Y-29700D03*
X52875Y-29700D03*
X52525Y-30600D03*
X51775Y-30600D03*
G54D16*
X66020Y-26110D03*
X68580Y-26110D03*
X66020Y-27890D03*
X68580Y-27890D03*
X68580Y-47290D03*
X66020Y-47290D03*
X68580Y-45510D03*
X66020Y-45510D03*
G54D17*
X43450Y-34200D03*
G54D13*
X43450Y-35200D03*
X43450Y-36200D03*
X43450Y-37200D03*
X43450Y-38200D03*
X43450Y-39200D03*
G54D14*
X50075Y-42150D03*
X49325Y-42150D03*
X49325Y-43150D03*
X48575Y-43150D03*
G54D13*
X64000Y-35200D03*
X65000Y-35200D03*
X64000Y-34200D03*
X65000Y-34200D03*
X64000Y-33200D03*
X65000Y-33200D03*
X64000Y-32200D03*
X65000Y-32200D03*
X64000Y-31200D03*
X65000Y-31200D03*
X64000Y-30200D03*
X65000Y-30200D03*
X64000Y-29200D03*
G54D18*
X41300Y-25900D03*
X42900Y-25900D03*
X43900Y-25900D03*
X44900Y-25900D03*
X45900Y-25900D03*
X46900Y-25900D03*
X47900Y-25900D03*
X51900Y-25900D03*
G54D13*
X65000Y-29200D03*
X64000Y-28200D03*
X65000Y-28200D03*
G54D18*
X58900Y-25900D03*
X52900Y-25900D03*
X53900Y-25900D03*
X54900Y-25900D03*
X57900Y-25900D03*
G54D19*
X51350Y-33200D03*
X50750Y-33200D03*
X47800Y-40200D03*
X46600Y-40200D03*
X47200Y-40200D03*
X48400Y-40200D03*
X49000Y-40200D03*
X49600Y-40200D03*
X50200Y-40200D03*
X50800Y-40200D03*
X45400Y-33200D03*
X46000Y-33200D03*
X46600Y-33200D03*
X47200Y-33200D03*
X47800Y-33200D03*
X48400Y-33200D03*
X49000Y-33200D03*
X50150Y-33200D03*
G54D18*
X53900Y-47500D03*
X54900Y-47500D03*
X55900Y-47500D03*
X56900Y-47500D03*
X57900Y-47500D03*
X58900Y-47500D03*
X59900Y-47500D03*
X60900Y-47500D03*
G54D13*
X65000Y-43200D03*
X64000Y-42200D03*
X65000Y-42200D03*
X64000Y-41200D03*
X65000Y-41200D03*
X64000Y-40200D03*
X65000Y-40200D03*
X64000Y-39200D03*
X65000Y-39200D03*
X64000Y-38200D03*
X65000Y-38200D03*
X64000Y-37200D03*
X65000Y-37200D03*
X64000Y-36200D03*
X65000Y-36200D03*
G54D18*
X37300Y-25900D03*
X38300Y-25900D03*
X39300Y-25900D03*
X40300Y-25900D03*
G54D20*
X52531Y-34043D03*
X44855Y-34043D03*
X44855Y-39357D03*
X52531Y-39357D03*
G54D21*
X49578Y-39298D03*
X50169Y-39298D03*
X51940Y-39298D03*
X48398Y-39298D03*
X47217Y-34102D03*
X50169Y-34102D03*
X46036Y-34102D03*
X46626Y-34102D03*
X48989Y-34102D03*
X45445Y-34102D03*
X51350Y-34102D03*
X50759Y-34102D03*
X47808Y-39298D03*
X50759Y-39298D03*
X46626Y-39298D03*
X47217Y-39298D03*
X46036Y-39298D03*
G54D22*
X54421Y-36700D03*
G54D23*
X54480Y-37290D03*
X54480Y-36110D03*
G54D21*
X49578Y-34102D03*
X48989Y-39298D03*
X51350Y-39298D03*
X48398Y-34102D03*
X47808Y-34102D03*
X51940Y-34102D03*
X45445Y-39298D03*
G54D24*
X40800Y-41100D03*
G54D25*
X40800Y-43700D03*
X41700Y-43700D03*
X39900Y-43700D03*
G54D26*
X67300Y-33325D03*
X67300Y-34075D03*
X67300Y-39325D03*
X67300Y-40075D03*
X67300Y-36075D03*
X67300Y-35325D03*
X67300Y-42075D03*
X67300Y-41325D03*
G54D18*
X44900Y-47500D03*
X45900Y-47500D03*
X46900Y-47500D03*
X47900Y-47500D03*
X48900Y-47500D03*
X49900Y-47500D03*
X50900Y-47500D03*
X51900Y-47500D03*
G54D13*
X64000Y-43200D03*
X64000Y-44200D03*
X65000Y-44200D03*
G54D18*
X36300Y-25900D03*
X34300Y-25900D03*
X35300Y-25900D03*
X37900Y-47500D03*
X38900Y-47500D03*
X39900Y-47500D03*
X40900Y-47500D03*
X41900Y-47500D03*
X42900Y-47500D03*
G54D11*
X34800Y-46900D03*
X58400Y-30200D03*
X63450Y-46900D03*
X67300Y-30200D03*
G54D27*
X67300Y-37200D03*
X67300Y-43150D03*
X52425Y-35575D03*
X52400Y-34850D03*
X52375Y-38300D03*
X52375Y-37525D03*
X52375Y-36725D03*
X52400Y-36125D03*
X54475Y-38300D03*
X54475Y-39400D03*
X53975Y-38850D03*
X54000Y-37875D03*
X53575Y-38300D03*
X53525Y-39400D03*
X53050Y-38850D03*
X53050Y-37875D03*
X53050Y-36275D03*
X53050Y-37150D03*
X55400Y-36225D03*
X55875Y-35900D03*
X55875Y-35125D03*
X55875Y-34250D03*
X55850Y-33400D03*
X55850Y-32525D03*
X55100Y-32500D03*
X54175Y-32500D03*
X53425Y-32500D03*
X52750Y-32475D03*
X51350Y-38350D03*
G54D28*
X38900Y-46200D02*
X38900Y-47500D01*
X43000Y-43750D02*
X43650Y-43750D01*
X44250Y-43150D02*
X44625Y-43150D01*
X43650Y-43750D02*
X44250Y-43150D01*
X42250Y-43750D02*
X43000Y-43750D01*
X42200Y-43700D02*
X42250Y-43750D01*
X41700Y-43700D02*
X42200Y-43700D01*
X41700Y-43725D02*
X41700Y-43700D01*
X39900Y-46200D02*
X39900Y-47500D01*
X38600Y-43750D02*
X39850Y-43750D01*
X39850Y-43750D02*
X39900Y-43700D01*
X39900Y-46200D02*
X39900Y-43700D01*
X44900Y-47500D02*
X44900Y-46200D01*
X45900Y-47500D02*
X45900Y-46200D01*
X55900Y-46200D02*
X55900Y-47500D01*
X56900Y-46200D02*
X56900Y-47500D01*
X57900Y-46200D02*
X57900Y-47500D01*
X58900Y-46200D02*
X58900Y-47500D01*
X59900Y-46200D02*
X59900Y-47500D01*
X60900Y-46200D02*
X60900Y-47500D01*
X46900Y-47500D02*
X46900Y-46200D01*
X47650Y-45050D02*
X47900Y-45300D01*
X47900Y-45300D02*
X47900Y-46200D01*
X47900Y-47500D02*
X47900Y-46200D01*
X44625Y-44150D02*
X44625Y-44675D01*
X47900Y-45300D02*
X47900Y-46200D01*
X47650Y-45050D02*
X47900Y-45300D01*
X45000Y-45050D02*
X47650Y-45050D01*
X44625Y-44675D02*
X45000Y-45050D01*
X48575Y-43150D02*
X48575Y-43975D01*
X48900Y-44300D02*
X48900Y-46200D01*
X48575Y-43975D02*
X48900Y-44300D01*
X48900Y-47500D02*
X48900Y-46200D01*
X50800Y-40200D02*
X50800Y-40800D01*
X49900Y-42850D02*
X49900Y-46200D01*
X49700Y-42650D02*
X49900Y-42850D01*
X49700Y-41550D02*
X49700Y-42650D01*
X50050Y-41200D02*
X49700Y-41550D01*
X50400Y-41200D02*
X50050Y-41200D01*
X50800Y-40800D02*
X50400Y-41200D01*
X50759Y-39298D02*
X50759Y-40159D01*
X50759Y-40159D02*
X50800Y-40200D01*
X49900Y-47500D02*
X49900Y-46200D01*
X67300Y-37200D02*
X67300Y-36075D01*
X50900Y-47500D02*
X50900Y-46200D01*
X67300Y-43150D02*
X67300Y-42075D01*
X51900Y-47500D02*
X51900Y-46200D01*
X53900Y-46200D02*
X53900Y-47500D01*
X54900Y-46200D02*
X54900Y-47500D01*
X34300Y-27200D02*
X34300Y-25900D01*
X47217Y-34102D02*
X47217Y-33217D01*
X47217Y-33217D02*
X47200Y-33200D01*
X63450Y-46900D02*
X64300Y-46050D01*
X64300Y-44900D02*
X64500Y-44700D01*
X64300Y-46050D02*
X64300Y-44900D01*
X34800Y-30450D02*
X35950Y-31600D01*
X35950Y-45750D02*
X34800Y-46900D01*
X35950Y-31600D02*
X35950Y-45750D01*
X35300Y-27200D02*
X35300Y-29950D01*
X35300Y-29950D02*
X34800Y-30450D01*
X52525Y-30600D02*
X55400Y-30600D01*
X57500Y-31100D02*
X58400Y-30200D01*
X55900Y-31100D02*
X57500Y-31100D01*
X55400Y-30600D02*
X55900Y-31100D01*
X41400Y-46200D02*
X41400Y-47050D01*
X41900Y-47500D02*
X41450Y-47050D01*
X41450Y-47050D02*
X41400Y-47050D01*
X41350Y-47050D02*
X40900Y-47500D01*
X41400Y-47050D02*
X41350Y-47050D01*
X35300Y-27200D02*
X35300Y-25900D01*
X40900Y-45200D02*
X40900Y-46200D01*
X62900Y-44200D02*
X62400Y-44700D01*
X62400Y-44700D02*
X61900Y-44200D01*
X64000Y-44200D02*
X63450Y-44750D01*
X63450Y-44750D02*
X62900Y-44200D01*
X64000Y-44200D02*
X64500Y-44700D01*
X64500Y-44700D02*
X65000Y-44200D01*
X66020Y-45510D02*
X66020Y-44580D01*
X66020Y-44580D02*
X66400Y-44200D01*
X50075Y-42150D02*
X52000Y-42150D01*
X52531Y-41619D02*
X52531Y-39357D01*
X52000Y-42150D02*
X52531Y-41619D01*
X65000Y-44200D02*
X66400Y-44200D01*
X66400Y-44200D02*
X67700Y-44200D01*
X67700Y-44200D02*
X68100Y-43800D01*
X68100Y-43800D02*
X68100Y-39000D01*
X67300Y-39325D02*
X67775Y-39325D01*
X67775Y-39325D02*
X68100Y-39000D01*
X67775Y-33325D02*
X67300Y-33325D01*
X68100Y-33650D02*
X67775Y-33325D01*
X68100Y-39000D02*
X68100Y-33650D01*
X66020Y-27890D02*
X66020Y-31220D01*
X67300Y-32500D02*
X67300Y-33325D01*
X66020Y-31220D02*
X67300Y-32500D01*
X66020Y-27890D02*
X68580Y-27890D01*
X66020Y-45510D02*
X68580Y-45510D01*
X44625Y-41150D02*
X44625Y-42150D01*
X44625Y-41150D02*
X44625Y-40425D01*
X44855Y-40195D02*
X44855Y-39357D01*
X44625Y-40425D02*
X44855Y-40195D01*
X44625Y-41150D02*
X43550Y-41150D01*
X43550Y-41150D02*
X43000Y-41700D01*
X50400Y-29800D02*
X51000Y-29200D01*
X52525Y-32550D02*
X52525Y-31300D01*
X44855Y-32645D02*
X44855Y-34043D01*
X44855Y-32645D02*
X45325Y-32175D01*
X45325Y-32175D02*
X48025Y-32175D01*
X48025Y-32175D02*
X50400Y-29800D01*
X52525Y-29875D02*
X52525Y-31300D01*
X52525Y-29325D02*
X52525Y-29875D01*
X52400Y-29200D02*
X52525Y-29325D01*
X51000Y-29200D02*
X52400Y-29200D01*
X52400Y-35600D02*
X52400Y-36125D01*
X52425Y-35575D02*
X52400Y-35600D01*
X52531Y-34719D02*
X52400Y-34850D01*
X52531Y-34043D02*
X52531Y-34719D01*
X52531Y-38456D02*
X52375Y-38300D01*
X52531Y-39357D02*
X52531Y-38456D01*
X52375Y-36725D02*
X52375Y-37525D01*
X52900Y-36125D02*
X52400Y-36125D01*
X53050Y-36275D02*
X52900Y-36125D01*
X53215Y-36110D02*
X53050Y-36275D01*
X54480Y-36110D02*
X53215Y-36110D01*
X53050Y-37875D02*
X53050Y-37150D01*
X53975Y-38900D02*
X53975Y-38850D01*
X54475Y-39400D02*
X53975Y-38900D01*
X54000Y-37875D02*
X53575Y-38300D01*
X53050Y-38925D02*
X53050Y-38850D01*
X53525Y-39400D02*
X53050Y-38925D01*
X54480Y-38295D02*
X54475Y-38300D01*
X54480Y-37290D02*
X54480Y-38295D01*
X40800Y-41125D02*
X40800Y-43725D01*
X40800Y-43725D02*
X40800Y-44450D01*
X40900Y-44550D02*
X40900Y-45200D01*
X40800Y-44450D02*
X40900Y-44550D01*
X55875Y-35900D02*
X55875Y-35125D01*
X55850Y-34225D02*
X55850Y-33400D01*
X55875Y-34250D02*
X55850Y-34225D01*
X55825Y-32500D02*
X55100Y-32500D01*
X55850Y-32525D02*
X55825Y-32500D01*
X54175Y-32500D02*
X53425Y-32500D01*
X55285Y-36110D02*
X55400Y-36225D01*
X54480Y-36110D02*
X55285Y-36110D01*
X52600Y-32475D02*
X52525Y-32550D01*
X52750Y-32475D02*
X52600Y-32475D01*
X40800Y-41100D02*
X42400Y-41100D01*
X38600Y-41700D02*
X38600Y-42450D01*
X39200Y-41100D02*
X38600Y-41700D01*
X40800Y-41100D02*
X39200Y-41100D01*
X40900Y-46200D02*
X41400Y-46200D01*
X41400Y-46200D02*
X41900Y-46200D01*
X40900Y-45200D02*
X40900Y-46200D01*
X52525Y-32550D02*
X52525Y-33100D01*
X52525Y-34037D02*
X52531Y-34043D01*
X52525Y-33100D02*
X52525Y-34037D01*
X42400Y-41100D02*
X43000Y-41700D01*
X43000Y-41700D02*
X43000Y-42450D01*
X40800Y-41100D02*
X40800Y-41125D01*
X44855Y-34795D02*
X43450Y-36200D01*
X44855Y-34043D02*
X44855Y-34795D01*
X39300Y-27200D02*
X39300Y-25900D01*
X38300Y-27200D02*
X38300Y-25900D01*
X37300Y-27200D02*
X37300Y-25900D01*
X36300Y-25900D02*
X36300Y-27200D01*
X51900Y-27200D02*
X51900Y-25900D01*
X52900Y-27200D02*
X52900Y-25900D01*
X53900Y-27200D02*
X53900Y-25900D01*
X54900Y-27200D02*
X54900Y-25900D01*
X47900Y-27200D02*
X47900Y-25900D01*
X57900Y-27200D02*
X57900Y-25900D01*
X58900Y-27200D02*
X58900Y-25900D01*
X61900Y-28200D02*
X62400Y-27700D01*
X64500Y-27700D02*
X65000Y-28200D01*
X62400Y-27700D02*
X64500Y-27700D01*
X62900Y-28200D02*
X64000Y-28200D01*
X61900Y-29200D02*
X62400Y-28700D01*
X64500Y-28700D02*
X65000Y-29200D01*
X62400Y-28700D02*
X64500Y-28700D01*
X62900Y-29200D02*
X64000Y-29200D01*
X61900Y-30200D02*
X62400Y-29700D01*
X64500Y-29700D02*
X65000Y-30200D01*
X62400Y-29700D02*
X64500Y-29700D01*
X62900Y-30200D02*
X64000Y-30200D01*
X61900Y-31200D02*
X62400Y-30700D01*
X64500Y-30700D02*
X65000Y-31200D01*
X62400Y-30700D02*
X64500Y-30700D01*
X62900Y-31200D02*
X64000Y-31200D01*
X46900Y-27200D02*
X46900Y-25900D01*
X61900Y-32200D02*
X62400Y-31700D01*
X64500Y-31700D02*
X65000Y-32200D01*
X62400Y-31700D02*
X64500Y-31700D01*
X62900Y-32200D02*
X64000Y-32200D01*
X61900Y-33200D02*
X62400Y-32700D01*
X64500Y-32700D02*
X65000Y-33200D01*
X62400Y-32700D02*
X64500Y-32700D01*
X62900Y-33200D02*
X64000Y-33200D01*
X61900Y-34200D02*
X62400Y-33700D01*
X64500Y-33700D02*
X65000Y-34200D01*
X62400Y-33700D02*
X64500Y-33700D01*
X62900Y-34200D02*
X64000Y-34200D01*
X61900Y-35200D02*
X62400Y-34700D01*
X64500Y-34700D02*
X65000Y-35200D01*
X62400Y-34700D02*
X64500Y-34700D01*
X62900Y-35200D02*
X64000Y-35200D01*
X61900Y-36200D02*
X62400Y-35700D01*
X64500Y-35700D02*
X65000Y-36200D01*
X62400Y-35700D02*
X64500Y-35700D01*
X62900Y-36200D02*
X64000Y-36200D01*
X45900Y-27200D02*
X45900Y-25900D01*
X61900Y-37200D02*
X62400Y-36700D01*
X64500Y-36700D02*
X65000Y-37200D01*
X62400Y-36700D02*
X64500Y-36700D01*
X62900Y-37200D02*
X64000Y-37200D01*
X61900Y-38200D02*
X62400Y-37700D01*
X64500Y-37700D02*
X65000Y-38200D01*
X62400Y-37700D02*
X64500Y-37700D01*
X62900Y-38200D02*
X64000Y-38200D01*
X61900Y-39200D02*
X62400Y-38700D01*
X64500Y-38700D02*
X65000Y-39200D01*
X62400Y-38700D02*
X64500Y-38700D01*
X62900Y-39200D02*
X64000Y-39200D01*
X61900Y-40200D02*
X62400Y-39700D01*
X64500Y-39700D02*
X65000Y-40200D01*
X62400Y-39700D02*
X64500Y-39700D01*
X62900Y-40200D02*
X64000Y-40200D01*
X61900Y-41200D02*
X62400Y-40700D01*
X64500Y-40700D02*
X65000Y-41200D01*
X62400Y-40700D02*
X64500Y-40700D01*
X62900Y-41200D02*
X64000Y-41200D01*
X44900Y-27200D02*
X44900Y-25900D01*
X61900Y-42200D02*
X62400Y-41700D01*
X64500Y-41700D02*
X65000Y-42200D01*
X62400Y-41700D02*
X64500Y-41700D01*
X62900Y-42200D02*
X64000Y-42200D01*
X61900Y-43200D02*
X62400Y-42700D01*
X64500Y-42700D02*
X65000Y-43200D01*
X62400Y-42700D02*
X64500Y-42700D01*
X62900Y-43200D02*
X64000Y-43200D01*
X43900Y-27200D02*
X43900Y-25900D01*
X42900Y-27200D02*
X42900Y-25900D01*
X41300Y-27200D02*
X41300Y-25900D01*
X40300Y-27200D02*
X40300Y-25900D01*
X37900Y-46200D02*
X37900Y-47500D01*
X50150Y-33200D02*
X50150Y-34083D01*
X50150Y-34083D02*
X50169Y-34102D01*
X47550Y-35100D02*
X43450Y-39200D01*
X49950Y-35100D02*
X47550Y-35100D01*
X50169Y-34881D02*
X49950Y-35100D01*
X50169Y-34102D02*
X50169Y-34881D01*
X51350Y-38350D02*
X51350Y-39298D01*
X52875Y-29700D02*
X54900Y-29700D01*
X55900Y-28700D02*
X55900Y-27200D01*
X54900Y-29700D02*
X55900Y-28700D01*
X42900Y-46200D02*
X42900Y-47500D01*
X49325Y-42150D02*
X48200Y-42150D01*
X47800Y-41750D02*
X47800Y-40200D01*
X48200Y-42150D02*
X47800Y-41750D01*
X49325Y-42150D02*
X49325Y-43150D01*
X47808Y-39298D02*
X47808Y-40192D01*
X47808Y-40192D02*
X47800Y-40200D01*
X45375Y-42150D02*
X45750Y-42150D01*
X45750Y-42150D02*
X46036Y-41864D01*
X45375Y-44150D02*
X45750Y-44150D01*
X46036Y-43864D02*
X46036Y-41864D01*
X46036Y-41864D02*
X46036Y-39298D01*
X45750Y-44150D02*
X46036Y-43864D01*
X51775Y-30600D02*
X51300Y-30600D01*
X49578Y-32322D02*
X49578Y-34102D01*
X51300Y-30600D02*
X49578Y-32322D01*
X51775Y-30600D02*
X51775Y-29825D01*
X51900Y-29700D02*
X52125Y-29700D01*
X51775Y-29825D02*
X51900Y-29700D01*
X46850Y-34800D02*
X43450Y-38200D01*
X49578Y-34102D02*
X49578Y-34522D01*
X49578Y-34522D02*
X49300Y-34800D01*
X49300Y-34800D02*
X46850Y-34800D01*
X45375Y-41150D02*
X45100Y-41150D01*
X45100Y-43150D02*
X45375Y-43150D01*
X45000Y-43050D02*
X45100Y-43150D01*
X45000Y-41250D02*
X45000Y-43050D01*
X45100Y-41150D02*
X45000Y-41250D01*
X45375Y-41150D02*
X45375Y-40275D01*
X45445Y-40205D02*
X45445Y-39298D01*
X45375Y-40275D02*
X45445Y-40205D01*
X51940Y-34102D02*
X51940Y-32690D01*
X51775Y-32525D02*
X51775Y-31850D01*
X51940Y-32690D02*
X51775Y-32525D01*
X44500Y-38700D02*
X45445Y-38700D01*
X44300Y-38900D02*
X44500Y-38700D01*
X44300Y-39550D02*
X44300Y-38900D01*
X44000Y-39850D02*
X44300Y-39550D01*
X42900Y-39850D02*
X44000Y-39850D01*
X42800Y-39750D02*
X42900Y-39850D01*
X42800Y-35400D02*
X42800Y-39750D01*
X43000Y-35200D02*
X42800Y-35400D01*
X43450Y-35200D02*
X43000Y-35200D01*
X45445Y-38055D02*
X45445Y-38700D01*
X46600Y-36900D02*
X45445Y-38055D01*
X50700Y-36900D02*
X46600Y-36900D01*
X51940Y-35660D02*
X50700Y-36900D01*
X51940Y-34102D02*
X51940Y-35660D01*
X45445Y-38700D02*
X45445Y-39298D01*
X46626Y-39298D02*
X46626Y-40174D01*
X46626Y-40174D02*
X46600Y-40200D01*
X47217Y-39298D02*
X47217Y-40183D01*
X47217Y-40183D02*
X47200Y-40200D01*
X48398Y-39298D02*
X48398Y-40198D01*
X48398Y-40198D02*
X48400Y-40200D01*
X46036Y-34102D02*
X46036Y-33236D01*
X46036Y-33236D02*
X46000Y-33200D01*
X46626Y-34102D02*
X46626Y-33226D01*
X46626Y-33226D02*
X46600Y-33200D01*
X50169Y-39298D02*
X50169Y-40169D01*
X50169Y-40169D02*
X50200Y-40200D01*
X48989Y-39298D02*
X48989Y-40189D01*
X48989Y-40189D02*
X49000Y-40200D01*
X49000Y-33200D02*
X49000Y-34091D01*
X49000Y-34091D02*
X48989Y-34102D01*
X49578Y-39298D02*
X49578Y-40178D01*
X49578Y-40178D02*
X49600Y-40200D01*
X45445Y-34102D02*
X45445Y-33245D01*
X45445Y-33245D02*
X45400Y-33200D01*
X48398Y-34102D02*
X48398Y-33202D01*
X48398Y-33202D02*
X48400Y-33200D01*
X47808Y-34102D02*
X47808Y-33208D01*
X47808Y-33208D02*
X47800Y-33200D01*
X51350Y-33200D02*
X51350Y-34102D01*
X50750Y-33200D02*
X50750Y-34093D01*
X50750Y-34093D02*
X50759Y-34102D01*
X67300Y-40075D02*
X67300Y-41325D01*
X67300Y-34075D02*
X67300Y-35325D01*
G54D10*
G36*
X36010Y-26519D02*
X35967Y-26537D01*
X35801Y-26702D01*
X35794Y-26716D01*
X35675Y-26576D01*
X35520Y-26497D01*
X35643Y-26451D01*
X35678Y-26428D01*
X35712Y-26319D01*
X35300Y-25907D01*
X34888Y-26319D01*
X34922Y-26428D01*
X35077Y-26498D01*
X34925Y-26576D01*
X34804Y-26717D01*
X34799Y-26703D01*
X34634Y-26537D01*
X34590Y-26518D01*
X34590Y-26482D01*
X34668Y-26450D01*
X34823Y-26294D01*
X34881Y-26312D01*
X35258Y-25935D01*
X35293Y-25900D01*
X35300Y-25893D01*
X35307Y-25900D01*
X35342Y-25935D01*
X35719Y-26312D01*
X35776Y-26294D01*
X35932Y-26450D01*
X36010Y-26482D01*
X36010Y-26519D01*
X36010Y-26519D01*
G37*
G54D29*
X36010Y-26519D02*
X35967Y-26537D01*
X35801Y-26702D01*
X35794Y-26716D01*
X35675Y-26576D01*
X35520Y-26497D01*
X35643Y-26451D01*
X35678Y-26428D01*
X35712Y-26319D01*
X35300Y-25907D01*
X34888Y-26319D01*
X34922Y-26428D01*
X35077Y-26498D01*
X34925Y-26576D01*
X34804Y-26717D01*
X34799Y-26703D01*
X34634Y-26537D01*
X34590Y-26518D01*
X34590Y-26482D01*
X34668Y-26450D01*
X34823Y-26294D01*
X34881Y-26312D01*
X35258Y-25935D01*
X35293Y-25900D01*
X35300Y-25893D01*
X35307Y-25900D01*
X35342Y-25935D01*
X35719Y-26312D01*
X35776Y-26294D01*
X35932Y-26450D01*
X36010Y-26482D01*
X36010Y-26519D01*
G54D10*
G36*
X42610Y-46917D02*
X42532Y-46950D01*
X42376Y-47105D01*
X42319Y-47088D01*
X41942Y-47465D01*
X41907Y-47500D01*
X41900Y-47507D01*
X41893Y-47500D01*
X41858Y-47465D01*
X41481Y-47088D01*
X41400Y-47113D01*
X41319Y-47088D01*
X40942Y-47465D01*
X40907Y-47500D01*
X40900Y-47507D01*
X40893Y-47500D01*
X40858Y-47465D01*
X40481Y-47088D01*
X40423Y-47105D01*
X40268Y-46950D01*
X40190Y-46917D01*
X40190Y-46880D01*
X40233Y-46863D01*
X40399Y-46698D01*
X40405Y-46683D01*
X40525Y-46824D01*
X40679Y-46902D01*
X40557Y-46949D01*
X40522Y-46972D01*
X40488Y-47081D01*
X40900Y-47493D01*
X41312Y-47081D01*
X41278Y-46972D01*
X41122Y-46901D01*
X41275Y-46824D01*
X41400Y-46676D01*
X41525Y-46824D01*
X41679Y-46902D01*
X41557Y-46949D01*
X41522Y-46972D01*
X41488Y-47081D01*
X41900Y-47493D01*
X42312Y-47081D01*
X42278Y-46972D01*
X42122Y-46901D01*
X42275Y-46824D01*
X42395Y-46682D01*
X42401Y-46697D01*
X42566Y-46863D01*
X42610Y-46881D01*
X42610Y-46917D01*
X42610Y-46917D01*
G37*
G54D29*
X42610Y-46917D02*
X42532Y-46950D01*
X42376Y-47105D01*
X42319Y-47088D01*
X41942Y-47465D01*
X41907Y-47500D01*
X41900Y-47507D01*
X41893Y-47500D01*
X41858Y-47465D01*
X41481Y-47088D01*
X41400Y-47113D01*
X41319Y-47088D01*
X40942Y-47465D01*
X40907Y-47500D01*
X40900Y-47507D01*
X40893Y-47500D01*
X40858Y-47465D01*
X40481Y-47088D01*
X40423Y-47105D01*
X40268Y-46950D01*
X40190Y-46917D01*
X40190Y-46880D01*
X40233Y-46863D01*
X40399Y-46698D01*
X40405Y-46683D01*
X40525Y-46824D01*
X40679Y-46902D01*
X40557Y-46949D01*
X40522Y-46972D01*
X40488Y-47081D01*
X40900Y-47493D01*
X41312Y-47081D01*
X41278Y-46972D01*
X41122Y-46901D01*
X41275Y-46824D01*
X41400Y-46676D01*
X41525Y-46824D01*
X41679Y-46902D01*
X41557Y-46949D01*
X41522Y-46972D01*
X41488Y-47081D01*
X41900Y-47493D01*
X42312Y-47081D01*
X42278Y-46972D01*
X42122Y-46901D01*
X42275Y-46824D01*
X42395Y-46682D01*
X42401Y-46697D01*
X42566Y-46863D01*
X42610Y-46881D01*
X42610Y-46917D01*
G54D10*
G36*
X55610Y-28580D02*
X54780Y-29410D01*
X53299Y-29410D01*
X53299Y-29376D01*
X53261Y-29284D01*
X53191Y-29214D01*
X53100Y-29176D01*
X53001Y-29176D01*
X52651Y-29176D01*
X52559Y-29214D01*
X52500Y-29273D01*
X52441Y-29214D01*
X52350Y-29176D01*
X52251Y-29176D01*
X51901Y-29176D01*
X51809Y-29214D01*
X51739Y-29284D01*
X51701Y-29375D01*
X51701Y-29474D01*
X51701Y-29490D01*
X51694Y-29495D01*
X51570Y-29620D01*
X51507Y-29714D01*
X51485Y-29825D01*
X51485Y-30103D01*
X51459Y-30114D01*
X51389Y-30184D01*
X51351Y-30275D01*
X51351Y-30310D01*
X51300Y-30310D01*
X51189Y-30332D01*
X51095Y-30395D01*
X49373Y-32117D01*
X49310Y-32211D01*
X49288Y-32322D01*
X49288Y-32853D01*
X49255Y-32820D01*
X49090Y-32751D01*
X48911Y-32751D01*
X48746Y-32819D01*
X48700Y-32865D01*
X48655Y-32820D01*
X48490Y-32751D01*
X48311Y-32751D01*
X48146Y-32819D01*
X48100Y-32865D01*
X48055Y-32820D01*
X47890Y-32751D01*
X47711Y-32751D01*
X47546Y-32819D01*
X47500Y-32865D01*
X47455Y-32820D01*
X47290Y-32751D01*
X47111Y-32751D01*
X46946Y-32819D01*
X46900Y-32865D01*
X46855Y-32820D01*
X46690Y-32751D01*
X46511Y-32751D01*
X46346Y-32819D01*
X46300Y-32865D01*
X46255Y-32820D01*
X46090Y-32751D01*
X45911Y-32751D01*
X45746Y-32819D01*
X45700Y-32865D01*
X45655Y-32820D01*
X45490Y-32751D01*
X45311Y-32751D01*
X45146Y-32819D01*
X45020Y-32945D01*
X44951Y-33110D01*
X44951Y-33289D01*
X45019Y-33454D01*
X45069Y-33504D01*
X44986Y-33504D01*
X44922Y-33503D01*
X44860Y-33565D01*
X44860Y-33988D01*
X44860Y-34038D01*
X44860Y-34048D01*
X44860Y-34098D01*
X44860Y-34521D01*
X44922Y-34583D01*
X44986Y-34582D01*
X45049Y-34582D01*
X45054Y-34593D01*
X45124Y-34663D01*
X45215Y-34701D01*
X45314Y-34701D01*
X45674Y-34701D01*
X45740Y-34673D01*
X45806Y-34701D01*
X45905Y-34701D01*
X46265Y-34701D01*
X46330Y-34673D01*
X46396Y-34701D01*
X46495Y-34701D01*
X46539Y-34701D01*
X44850Y-36390D01*
X44850Y-34521D01*
X44850Y-34048D01*
X44850Y-34038D01*
X44850Y-33565D01*
X44788Y-33503D01*
X44724Y-33504D01*
X44625Y-33504D01*
X44534Y-33542D01*
X44464Y-33612D01*
X44426Y-33704D01*
X44425Y-33976D01*
X44487Y-34038D01*
X44850Y-34038D01*
X44850Y-34048D01*
X44487Y-34048D01*
X44425Y-34110D01*
X44426Y-34382D01*
X44464Y-34474D01*
X44534Y-34544D01*
X44625Y-34582D01*
X44724Y-34582D01*
X44788Y-34583D01*
X44850Y-34521D01*
X44850Y-36390D01*
X44049Y-37191D01*
X44049Y-37081D01*
X44041Y-37061D01*
X44041Y-36101D01*
X43958Y-35883D01*
X43938Y-35852D01*
X43833Y-35824D01*
X43457Y-36200D01*
X43833Y-36576D01*
X43938Y-36548D01*
X44034Y-36334D01*
X44041Y-36101D01*
X44041Y-37061D01*
X43958Y-36861D01*
X43790Y-36693D01*
X43798Y-36688D01*
X43826Y-36583D01*
X43485Y-36242D01*
X43450Y-36207D01*
X43443Y-36200D01*
X43450Y-36193D01*
X43485Y-36158D01*
X43826Y-35817D01*
X43798Y-35712D01*
X43789Y-35708D01*
X43789Y-35707D01*
X43958Y-35539D01*
X44049Y-35319D01*
X44049Y-35081D01*
X43958Y-34861D01*
X43882Y-34785D01*
X43941Y-34761D01*
X44011Y-34691D01*
X44049Y-34600D01*
X44049Y-34501D01*
X44049Y-33801D01*
X44011Y-33709D01*
X43941Y-33639D01*
X43850Y-33601D01*
X43751Y-33601D01*
X43051Y-33601D01*
X42959Y-33639D01*
X42889Y-33709D01*
X42851Y-33800D01*
X42851Y-33899D01*
X42851Y-34599D01*
X42889Y-34691D01*
X42959Y-34761D01*
X43017Y-34785D01*
X42942Y-34861D01*
X42914Y-34926D01*
X42914Y-34927D01*
X42889Y-34932D01*
X42795Y-34995D01*
X42794Y-34995D01*
X42794Y-34996D01*
X42595Y-35195D01*
X42532Y-35289D01*
X42510Y-35400D01*
X42510Y-39750D01*
X42532Y-39861D01*
X42595Y-39955D01*
X42695Y-40055D01*
X42789Y-40118D01*
X42900Y-40140D01*
X44000Y-40140D01*
X44111Y-40118D01*
X44205Y-40055D01*
X44468Y-39792D01*
X44534Y-39858D01*
X44625Y-39896D01*
X44724Y-39896D01*
X44788Y-39897D01*
X44850Y-39835D01*
X44850Y-39412D01*
X44850Y-39362D01*
X44850Y-39352D01*
X44860Y-39352D01*
X44860Y-39362D01*
X44860Y-39412D01*
X44860Y-39835D01*
X44922Y-39897D01*
X44986Y-39896D01*
X45085Y-39896D01*
X45148Y-39869D01*
X45155Y-39871D01*
X45155Y-40092D01*
X45107Y-40164D01*
X45085Y-40275D01*
X45085Y-40653D01*
X45059Y-40664D01*
X45000Y-40723D01*
X44941Y-40664D01*
X44849Y-40626D01*
X44692Y-40625D01*
X44630Y-40687D01*
X44630Y-41095D01*
X44630Y-41145D01*
X44630Y-41155D01*
X44630Y-41205D01*
X44630Y-41613D01*
X44667Y-41650D01*
X44630Y-41687D01*
X44630Y-42095D01*
X44630Y-42145D01*
X44630Y-42155D01*
X44620Y-42155D01*
X44620Y-42145D01*
X44620Y-41687D01*
X44583Y-41650D01*
X44620Y-41613D01*
X44620Y-41155D01*
X44620Y-41145D01*
X44620Y-40687D01*
X44558Y-40625D01*
X44401Y-40626D01*
X44309Y-40664D01*
X44239Y-40734D01*
X44201Y-40825D01*
X44201Y-40924D01*
X44200Y-41083D01*
X44262Y-41145D01*
X44620Y-41145D01*
X44620Y-41155D01*
X44262Y-41155D01*
X44200Y-41217D01*
X44201Y-41376D01*
X44201Y-41475D01*
X44239Y-41566D01*
X44309Y-41636D01*
X44342Y-41650D01*
X44309Y-41664D01*
X44239Y-41734D01*
X44201Y-41825D01*
X44201Y-41924D01*
X44200Y-42083D01*
X44262Y-42145D01*
X44620Y-42145D01*
X44620Y-42155D01*
X44570Y-42155D01*
X44262Y-42155D01*
X44200Y-42217D01*
X44201Y-42376D01*
X44201Y-42475D01*
X44239Y-42566D01*
X44309Y-42636D01*
X44342Y-42650D01*
X44309Y-42664D01*
X44239Y-42734D01*
X44201Y-42825D01*
X44201Y-42869D01*
X44139Y-42882D01*
X44045Y-42945D01*
X43650Y-43339D01*
X43650Y-42517D01*
X43650Y-42383D01*
X43649Y-42101D01*
X43611Y-42009D01*
X43541Y-41939D01*
X43450Y-41901D01*
X43351Y-41901D01*
X43067Y-41900D01*
X43005Y-41962D01*
X43005Y-42445D01*
X43588Y-42445D01*
X43650Y-42383D01*
X43650Y-42517D01*
X43588Y-42455D01*
X43005Y-42455D01*
X43005Y-42938D01*
X43067Y-43000D01*
X43351Y-42999D01*
X43450Y-42999D01*
X43541Y-42961D01*
X43611Y-42891D01*
X43649Y-42799D01*
X43650Y-42517D01*
X43650Y-43339D01*
X43631Y-43358D01*
X43611Y-43309D01*
X43541Y-43239D01*
X43450Y-43201D01*
X43351Y-43201D01*
X42995Y-43201D01*
X42995Y-42938D01*
X42995Y-42455D01*
X42995Y-42445D01*
X42995Y-41962D01*
X42933Y-41900D01*
X42649Y-41901D01*
X42550Y-41901D01*
X42459Y-41939D01*
X42389Y-42009D01*
X42351Y-42101D01*
X42350Y-42383D01*
X42412Y-42445D01*
X42995Y-42445D01*
X42995Y-42455D01*
X42412Y-42455D01*
X42350Y-42517D01*
X42351Y-42799D01*
X42389Y-42891D01*
X42459Y-42961D01*
X42550Y-42999D01*
X42649Y-42999D01*
X42933Y-43000D01*
X42995Y-42938D01*
X42995Y-43201D01*
X42551Y-43201D01*
X42459Y-43239D01*
X42389Y-43309D01*
X42351Y-43400D01*
X42351Y-43458D01*
X42311Y-43432D01*
X42200Y-43410D01*
X42149Y-43410D01*
X42149Y-43251D01*
X42111Y-43159D01*
X42041Y-43089D01*
X41950Y-43051D01*
X41851Y-43051D01*
X41770Y-43051D01*
X41770Y-41167D01*
X41770Y-41033D01*
X41769Y-40749D01*
X41769Y-40650D01*
X41731Y-40559D01*
X41661Y-40489D01*
X41569Y-40451D01*
X40867Y-40450D01*
X40805Y-40512D01*
X40805Y-41095D01*
X41708Y-41095D01*
X41770Y-41033D01*
X41770Y-41167D01*
X41708Y-41105D01*
X40805Y-41105D01*
X40805Y-41688D01*
X40867Y-41750D01*
X41569Y-41749D01*
X41661Y-41711D01*
X41731Y-41641D01*
X41769Y-41550D01*
X41769Y-41451D01*
X41770Y-41167D01*
X41770Y-43051D01*
X41451Y-43051D01*
X41359Y-43089D01*
X41289Y-43159D01*
X41251Y-43250D01*
X41251Y-43349D01*
X41251Y-44149D01*
X41289Y-44241D01*
X41359Y-44311D01*
X41450Y-44349D01*
X41549Y-44349D01*
X41949Y-44349D01*
X42041Y-44311D01*
X42111Y-44241D01*
X42149Y-44150D01*
X42149Y-44051D01*
X42149Y-44019D01*
X42249Y-44039D01*
X42250Y-44040D01*
X42351Y-44040D01*
X42351Y-44099D01*
X42389Y-44191D01*
X42459Y-44261D01*
X42550Y-44299D01*
X42649Y-44299D01*
X43449Y-44299D01*
X43541Y-44261D01*
X43611Y-44191D01*
X43649Y-44100D01*
X43649Y-44040D01*
X43650Y-44040D01*
X43761Y-44018D01*
X43855Y-43955D01*
X44241Y-43568D01*
X44309Y-43636D01*
X44342Y-43650D01*
X44309Y-43664D01*
X44239Y-43734D01*
X44201Y-43825D01*
X44201Y-43924D01*
X44201Y-44474D01*
X44239Y-44566D01*
X44309Y-44636D01*
X44335Y-44646D01*
X44335Y-44675D01*
X44357Y-44786D01*
X44420Y-44880D01*
X44795Y-45255D01*
X44889Y-45318D01*
X45000Y-45340D01*
X47530Y-45340D01*
X47610Y-45420D01*
X47610Y-45519D01*
X47567Y-45537D01*
X47401Y-45702D01*
X47399Y-45703D01*
X47234Y-45537D01*
X47017Y-45447D01*
X46783Y-45447D01*
X46567Y-45537D01*
X46401Y-45702D01*
X46399Y-45703D01*
X46234Y-45537D01*
X46017Y-45447D01*
X45783Y-45447D01*
X45567Y-45537D01*
X45401Y-45702D01*
X45399Y-45703D01*
X45234Y-45537D01*
X45017Y-45447D01*
X44783Y-45447D01*
X44567Y-45537D01*
X44401Y-45702D01*
X44311Y-45919D01*
X44311Y-46153D01*
X44311Y-46481D01*
X44401Y-46697D01*
X44566Y-46863D01*
X44610Y-46881D01*
X44610Y-46917D01*
X44532Y-46950D01*
X44350Y-47132D01*
X44251Y-47371D01*
X44251Y-47629D01*
X44350Y-47868D01*
X44427Y-47945D01*
X43373Y-47945D01*
X43450Y-47868D01*
X43549Y-47629D01*
X43549Y-47371D01*
X43450Y-47132D01*
X43268Y-46950D01*
X43190Y-46917D01*
X43190Y-46880D01*
X43233Y-46863D01*
X43399Y-46698D01*
X43489Y-46481D01*
X43489Y-46247D01*
X43489Y-45919D01*
X43399Y-45703D01*
X43234Y-45537D01*
X43017Y-45447D01*
X42783Y-45447D01*
X42567Y-45537D01*
X42401Y-45702D01*
X42394Y-45716D01*
X42275Y-45576D01*
X42065Y-45469D01*
X41999Y-45459D01*
X41905Y-45513D01*
X41905Y-46145D01*
X41905Y-46195D01*
X41905Y-46205D01*
X41895Y-46205D01*
X41895Y-46195D01*
X41895Y-45513D01*
X41801Y-45459D01*
X41735Y-45469D01*
X41525Y-45576D01*
X41400Y-45723D01*
X41275Y-45576D01*
X41250Y-45563D01*
X41250Y-43767D01*
X41250Y-43633D01*
X41249Y-43349D01*
X41249Y-43250D01*
X41211Y-43159D01*
X41141Y-43089D01*
X41049Y-43051D01*
X40867Y-43050D01*
X40805Y-43112D01*
X40805Y-43695D01*
X41188Y-43695D01*
X41250Y-43633D01*
X41250Y-43767D01*
X41188Y-43705D01*
X40805Y-43705D01*
X40805Y-44288D01*
X40867Y-44350D01*
X41049Y-44349D01*
X41141Y-44311D01*
X41211Y-44241D01*
X41249Y-44150D01*
X41249Y-44051D01*
X41250Y-43767D01*
X41250Y-45563D01*
X41065Y-45469D01*
X40999Y-45459D01*
X40905Y-45513D01*
X40905Y-46195D01*
X41300Y-46195D01*
X41500Y-46195D01*
X41895Y-46195D01*
X41895Y-46205D01*
X41845Y-46205D01*
X41500Y-46205D01*
X41300Y-46205D01*
X40955Y-46205D01*
X40905Y-46205D01*
X40895Y-46205D01*
X40895Y-46195D01*
X40895Y-46145D01*
X40895Y-45513D01*
X40801Y-45459D01*
X40795Y-45459D01*
X40795Y-44288D01*
X40795Y-43705D01*
X40795Y-43695D01*
X40795Y-43112D01*
X40795Y-41688D01*
X40795Y-41105D01*
X40795Y-41095D01*
X40795Y-40512D01*
X40733Y-40450D01*
X40031Y-40451D01*
X39939Y-40489D01*
X39869Y-40559D01*
X39831Y-40650D01*
X39831Y-40749D01*
X39830Y-41033D01*
X39892Y-41095D01*
X40795Y-41095D01*
X40795Y-41105D01*
X39892Y-41105D01*
X39830Y-41167D01*
X39831Y-41451D01*
X39831Y-41550D01*
X39869Y-41641D01*
X39939Y-41711D01*
X40031Y-41749D01*
X40733Y-41750D01*
X40795Y-41688D01*
X40795Y-43112D01*
X40733Y-43050D01*
X40551Y-43051D01*
X40459Y-43089D01*
X40389Y-43159D01*
X40351Y-43250D01*
X40351Y-43349D01*
X40350Y-43633D01*
X40412Y-43695D01*
X40795Y-43695D01*
X40795Y-43705D01*
X40412Y-43705D01*
X40350Y-43767D01*
X40351Y-44051D01*
X40351Y-44150D01*
X40389Y-44241D01*
X40459Y-44311D01*
X40551Y-44349D01*
X40733Y-44350D01*
X40795Y-44288D01*
X40795Y-45459D01*
X40735Y-45469D01*
X40525Y-45576D01*
X40404Y-45717D01*
X40399Y-45703D01*
X40234Y-45537D01*
X40190Y-45518D01*
X40190Y-44332D01*
X40241Y-44311D01*
X40311Y-44241D01*
X40349Y-44150D01*
X40349Y-44051D01*
X40349Y-43251D01*
X40311Y-43159D01*
X40241Y-43089D01*
X40150Y-43051D01*
X40051Y-43051D01*
X39651Y-43051D01*
X39559Y-43089D01*
X39489Y-43159D01*
X39451Y-43250D01*
X39451Y-43349D01*
X39451Y-43460D01*
X39250Y-43460D01*
X39250Y-42517D01*
X39250Y-42383D01*
X39249Y-42101D01*
X39211Y-42009D01*
X39141Y-41939D01*
X39050Y-41901D01*
X38951Y-41901D01*
X38667Y-41900D01*
X38605Y-41962D01*
X38605Y-42445D01*
X39188Y-42445D01*
X39250Y-42383D01*
X39250Y-42517D01*
X39188Y-42455D01*
X38605Y-42455D01*
X38605Y-42938D01*
X38667Y-43000D01*
X38951Y-42999D01*
X39050Y-42999D01*
X39141Y-42961D01*
X39211Y-42891D01*
X39249Y-42799D01*
X39250Y-42517D01*
X39250Y-43460D01*
X39249Y-43460D01*
X39249Y-43401D01*
X39211Y-43309D01*
X39141Y-43239D01*
X39050Y-43201D01*
X38951Y-43201D01*
X38595Y-43201D01*
X38595Y-42938D01*
X38595Y-42455D01*
X38595Y-42445D01*
X38595Y-41962D01*
X38533Y-41900D01*
X38249Y-41901D01*
X38150Y-41901D01*
X38059Y-41939D01*
X37989Y-42009D01*
X37951Y-42101D01*
X37950Y-42383D01*
X38012Y-42445D01*
X38595Y-42445D01*
X38595Y-42455D01*
X38012Y-42455D01*
X37950Y-42517D01*
X37951Y-42799D01*
X37989Y-42891D01*
X38059Y-42961D01*
X38150Y-42999D01*
X38249Y-42999D01*
X38533Y-43000D01*
X38595Y-42938D01*
X38595Y-43201D01*
X38151Y-43201D01*
X38059Y-43239D01*
X37989Y-43309D01*
X37951Y-43400D01*
X37951Y-43499D01*
X37951Y-44099D01*
X37989Y-44191D01*
X38059Y-44261D01*
X38150Y-44299D01*
X38249Y-44299D01*
X39049Y-44299D01*
X39141Y-44261D01*
X39211Y-44191D01*
X39249Y-44100D01*
X39249Y-44040D01*
X39451Y-44040D01*
X39451Y-44149D01*
X39489Y-44241D01*
X39559Y-44311D01*
X39610Y-44332D01*
X39610Y-45519D01*
X39567Y-45537D01*
X39401Y-45702D01*
X39399Y-45703D01*
X39234Y-45537D01*
X39017Y-45447D01*
X38783Y-45447D01*
X38567Y-45537D01*
X38401Y-45702D01*
X38399Y-45703D01*
X38234Y-45537D01*
X38017Y-45447D01*
X37783Y-45447D01*
X37567Y-45537D01*
X37401Y-45702D01*
X37311Y-45919D01*
X37311Y-46153D01*
X37311Y-46481D01*
X37401Y-46697D01*
X37566Y-46863D01*
X37610Y-46881D01*
X37610Y-46917D01*
X37532Y-46950D01*
X37350Y-47132D01*
X37251Y-47371D01*
X37251Y-47629D01*
X37350Y-47868D01*
X37427Y-47945D01*
X35835Y-47945D01*
X35835Y-46732D01*
X35835Y-30282D01*
X35692Y-29898D01*
X35651Y-29838D01*
X35501Y-29756D01*
X35494Y-29763D01*
X35494Y-29749D01*
X35412Y-29599D01*
X35040Y-29429D01*
X34632Y-29415D01*
X34248Y-29558D01*
X34188Y-29599D01*
X34106Y-29749D01*
X34800Y-30443D01*
X35494Y-29749D01*
X35494Y-29763D01*
X34807Y-30450D01*
X35501Y-31144D01*
X35651Y-31062D01*
X35821Y-30690D01*
X35835Y-30282D01*
X35835Y-46732D01*
X35692Y-46348D01*
X35651Y-46288D01*
X35501Y-46206D01*
X35494Y-46213D01*
X35494Y-46199D01*
X35494Y-31151D01*
X34800Y-30457D01*
X34793Y-30464D01*
X34793Y-30450D01*
X34099Y-29756D01*
X33949Y-29838D01*
X33779Y-30210D01*
X33765Y-30618D01*
X33908Y-31002D01*
X33949Y-31062D01*
X34099Y-31144D01*
X34793Y-30450D01*
X34793Y-30464D01*
X34106Y-31151D01*
X34188Y-31301D01*
X34560Y-31471D01*
X34968Y-31485D01*
X35352Y-31342D01*
X35412Y-31301D01*
X35494Y-31151D01*
X35494Y-46199D01*
X35412Y-46049D01*
X35040Y-45879D01*
X34632Y-45865D01*
X34248Y-46008D01*
X34188Y-46049D01*
X34106Y-46199D01*
X34800Y-46893D01*
X35494Y-46199D01*
X35494Y-46213D01*
X34807Y-46900D01*
X35501Y-47594D01*
X35651Y-47512D01*
X35821Y-47140D01*
X35835Y-46732D01*
X35835Y-47945D01*
X35494Y-47945D01*
X35494Y-47601D01*
X34800Y-46907D01*
X34793Y-46914D01*
X34793Y-46900D01*
X34099Y-46206D01*
X33949Y-46288D01*
X33779Y-46660D01*
X33765Y-47068D01*
X33908Y-47452D01*
X33949Y-47512D01*
X34099Y-47594D01*
X34793Y-46900D01*
X34793Y-46914D01*
X34106Y-47601D01*
X34188Y-47751D01*
X34560Y-47921D01*
X34968Y-47935D01*
X35352Y-47792D01*
X35412Y-47751D01*
X35494Y-47601D01*
X35494Y-47945D01*
X33255Y-47945D01*
X33255Y-25455D01*
X33827Y-25455D01*
X33750Y-25532D01*
X33651Y-25771D01*
X33651Y-26029D01*
X33750Y-26268D01*
X33932Y-26450D01*
X34010Y-26482D01*
X34010Y-26519D01*
X33967Y-26537D01*
X33801Y-26702D01*
X33711Y-26919D01*
X33711Y-27153D01*
X33711Y-27481D01*
X33801Y-27697D01*
X33966Y-27863D01*
X34183Y-27953D01*
X34417Y-27953D01*
X34633Y-27863D01*
X34799Y-27698D01*
X34805Y-27683D01*
X34925Y-27824D01*
X35135Y-27931D01*
X35201Y-27941D01*
X35295Y-27887D01*
X35295Y-27255D01*
X35295Y-27205D01*
X35295Y-27195D01*
X35305Y-27195D01*
X35305Y-27205D01*
X35305Y-27255D01*
X35305Y-27887D01*
X35399Y-27941D01*
X35465Y-27931D01*
X35675Y-27824D01*
X35795Y-27682D01*
X35801Y-27697D01*
X35966Y-27863D01*
X36183Y-27953D01*
X36417Y-27953D01*
X36633Y-27863D01*
X36799Y-27698D01*
X36800Y-27695D01*
X36801Y-27697D01*
X36966Y-27863D01*
X37183Y-27953D01*
X37417Y-27953D01*
X37633Y-27863D01*
X37799Y-27698D01*
X37800Y-27695D01*
X37801Y-27697D01*
X37966Y-27863D01*
X38183Y-27953D01*
X38417Y-27953D01*
X38633Y-27863D01*
X38799Y-27698D01*
X38800Y-27695D01*
X38801Y-27697D01*
X38966Y-27863D01*
X39183Y-27953D01*
X39417Y-27953D01*
X39633Y-27863D01*
X39799Y-27698D01*
X39800Y-27695D01*
X39801Y-27697D01*
X39966Y-27863D01*
X40183Y-27953D01*
X40417Y-27953D01*
X40633Y-27863D01*
X40799Y-27698D01*
X40800Y-27695D01*
X40801Y-27697D01*
X40966Y-27863D01*
X41183Y-27953D01*
X41417Y-27953D01*
X41633Y-27863D01*
X41799Y-27698D01*
X41889Y-27481D01*
X41889Y-27247D01*
X41889Y-26919D01*
X41799Y-26703D01*
X41634Y-26537D01*
X41590Y-26518D01*
X41590Y-26482D01*
X41668Y-26450D01*
X41850Y-26268D01*
X41949Y-26029D01*
X41949Y-25771D01*
X41850Y-25532D01*
X41773Y-25455D01*
X42427Y-25455D01*
X42350Y-25532D01*
X42251Y-25771D01*
X42251Y-26029D01*
X42350Y-26268D01*
X42532Y-26450D01*
X42610Y-26482D01*
X42610Y-26519D01*
X42567Y-26537D01*
X42401Y-26702D01*
X42311Y-26919D01*
X42311Y-27153D01*
X42311Y-27481D01*
X42401Y-27697D01*
X42566Y-27863D01*
X42783Y-27953D01*
X43017Y-27953D01*
X43233Y-27863D01*
X43399Y-27698D01*
X43400Y-27695D01*
X43401Y-27697D01*
X43566Y-27863D01*
X43783Y-27953D01*
X44017Y-27953D01*
X44233Y-27863D01*
X44399Y-27698D01*
X44400Y-27695D01*
X44401Y-27697D01*
X44566Y-27863D01*
X44783Y-27953D01*
X45017Y-27953D01*
X45233Y-27863D01*
X45399Y-27698D01*
X45400Y-27695D01*
X45401Y-27697D01*
X45566Y-27863D01*
X45783Y-27953D01*
X46017Y-27953D01*
X46233Y-27863D01*
X46399Y-27698D01*
X46400Y-27695D01*
X46401Y-27697D01*
X46566Y-27863D01*
X46783Y-27953D01*
X47017Y-27953D01*
X47233Y-27863D01*
X47399Y-27698D01*
X47400Y-27695D01*
X47401Y-27697D01*
X47566Y-27863D01*
X47783Y-27953D01*
X48017Y-27953D01*
X48233Y-27863D01*
X48399Y-27698D01*
X48400Y-27695D01*
X48401Y-27697D01*
X48566Y-27863D01*
X48783Y-27953D01*
X49017Y-27953D01*
X49233Y-27863D01*
X49399Y-27698D01*
X49400Y-27695D01*
X49401Y-27697D01*
X49566Y-27863D01*
X49783Y-27953D01*
X50017Y-27953D01*
X50233Y-27863D01*
X50399Y-27698D01*
X50489Y-27481D01*
X50489Y-27247D01*
X50489Y-26919D01*
X50399Y-26703D01*
X50234Y-26537D01*
X50017Y-26447D01*
X49783Y-26447D01*
X49567Y-26537D01*
X49401Y-26702D01*
X49399Y-26703D01*
X49234Y-26537D01*
X49017Y-26447D01*
X48783Y-26447D01*
X48567Y-26537D01*
X48401Y-26702D01*
X48399Y-26703D01*
X48234Y-26537D01*
X48190Y-26518D01*
X48190Y-26482D01*
X48268Y-26450D01*
X48450Y-26268D01*
X48549Y-26029D01*
X48549Y-25771D01*
X48450Y-25532D01*
X48373Y-25455D01*
X51427Y-25455D01*
X51350Y-25532D01*
X51251Y-25771D01*
X51251Y-26029D01*
X51350Y-26268D01*
X51532Y-26450D01*
X51610Y-26482D01*
X51610Y-26519D01*
X51567Y-26537D01*
X51401Y-26702D01*
X51311Y-26919D01*
X51311Y-27153D01*
X51311Y-27481D01*
X51401Y-27697D01*
X51566Y-27863D01*
X51783Y-27953D01*
X52017Y-27953D01*
X52233Y-27863D01*
X52399Y-27698D01*
X52400Y-27695D01*
X52401Y-27697D01*
X52566Y-27863D01*
X52783Y-27953D01*
X53017Y-27953D01*
X53233Y-27863D01*
X53399Y-27698D01*
X53400Y-27695D01*
X53401Y-27697D01*
X53566Y-27863D01*
X53783Y-27953D01*
X54017Y-27953D01*
X54233Y-27863D01*
X54399Y-27698D01*
X54400Y-27695D01*
X54401Y-27697D01*
X54566Y-27863D01*
X54783Y-27953D01*
X55017Y-27953D01*
X55233Y-27863D01*
X55399Y-27698D01*
X55400Y-27695D01*
X55401Y-27697D01*
X55566Y-27863D01*
X55610Y-27881D01*
X55610Y-28580D01*
X55610Y-28580D01*
G37*
G54D29*
X55610Y-28580D02*
X54780Y-29410D01*
X53299Y-29410D01*
X53299Y-29376D01*
X53261Y-29284D01*
X53191Y-29214D01*
X53100Y-29176D01*
X53001Y-29176D01*
X52651Y-29176D01*
X52559Y-29214D01*
X52500Y-29273D01*
X52441Y-29214D01*
X52350Y-29176D01*
X52251Y-29176D01*
X51901Y-29176D01*
X51809Y-29214D01*
X51739Y-29284D01*
X51701Y-29375D01*
X51701Y-29474D01*
X51701Y-29490D01*
X51694Y-29495D01*
X51570Y-29620D01*
X51507Y-29714D01*
X51485Y-29825D01*
X51485Y-30103D01*
X51459Y-30114D01*
X51389Y-30184D01*
X51351Y-30275D01*
X51351Y-30310D01*
X51300Y-30310D01*
X51189Y-30332D01*
X51095Y-30395D01*
X49373Y-32117D01*
X49310Y-32211D01*
X49288Y-32322D01*
X49288Y-32853D01*
X49255Y-32820D01*
X49090Y-32751D01*
X48911Y-32751D01*
X48746Y-32819D01*
X48700Y-32865D01*
X48655Y-32820D01*
X48490Y-32751D01*
X48311Y-32751D01*
X48146Y-32819D01*
X48100Y-32865D01*
X48055Y-32820D01*
X47890Y-32751D01*
X47711Y-32751D01*
X47546Y-32819D01*
X47500Y-32865D01*
X47455Y-32820D01*
X47290Y-32751D01*
X47111Y-32751D01*
X46946Y-32819D01*
X46900Y-32865D01*
X46855Y-32820D01*
X46690Y-32751D01*
X46511Y-32751D01*
X46346Y-32819D01*
X46300Y-32865D01*
X46255Y-32820D01*
X46090Y-32751D01*
X45911Y-32751D01*
X45746Y-32819D01*
X45700Y-32865D01*
X45655Y-32820D01*
X45490Y-32751D01*
X45311Y-32751D01*
X45146Y-32819D01*
X45020Y-32945D01*
X44951Y-33110D01*
X44951Y-33289D01*
X45019Y-33454D01*
X45069Y-33504D01*
X44986Y-33504D01*
X44922Y-33503D01*
X44860Y-33565D01*
X44860Y-33988D01*
X44860Y-34038D01*
X44860Y-34048D01*
X44860Y-34098D01*
X44860Y-34521D01*
X44922Y-34583D01*
X44986Y-34582D01*
X45049Y-34582D01*
X45054Y-34593D01*
X45124Y-34663D01*
X45215Y-34701D01*
X45314Y-34701D01*
X45674Y-34701D01*
X45740Y-34673D01*
X45806Y-34701D01*
X45905Y-34701D01*
X46265Y-34701D01*
X46330Y-34673D01*
X46396Y-34701D01*
X46495Y-34701D01*
X46539Y-34701D01*
X44850Y-36390D01*
X44850Y-34521D01*
X44850Y-34048D01*
X44850Y-34038D01*
X44850Y-33565D01*
X44788Y-33503D01*
X44724Y-33504D01*
X44625Y-33504D01*
X44534Y-33542D01*
X44464Y-33612D01*
X44426Y-33704D01*
X44425Y-33976D01*
X44487Y-34038D01*
X44850Y-34038D01*
X44850Y-34048D01*
X44487Y-34048D01*
X44425Y-34110D01*
X44426Y-34382D01*
X44464Y-34474D01*
X44534Y-34544D01*
X44625Y-34582D01*
X44724Y-34582D01*
X44788Y-34583D01*
X44850Y-34521D01*
X44850Y-36390D01*
X44049Y-37191D01*
X44049Y-37081D01*
X44041Y-37061D01*
X44041Y-36101D01*
X43958Y-35883D01*
X43938Y-35852D01*
X43833Y-35824D01*
X43457Y-36200D01*
X43833Y-36576D01*
X43938Y-36548D01*
X44034Y-36334D01*
X44041Y-36101D01*
X44041Y-37061D01*
X43958Y-36861D01*
X43790Y-36693D01*
X43798Y-36688D01*
X43826Y-36583D01*
X43485Y-36242D01*
X43450Y-36207D01*
X43443Y-36200D01*
X43450Y-36193D01*
X43485Y-36158D01*
X43826Y-35817D01*
X43798Y-35712D01*
X43789Y-35708D01*
X43789Y-35707D01*
X43958Y-35539D01*
X44049Y-35319D01*
X44049Y-35081D01*
X43958Y-34861D01*
X43882Y-34785D01*
X43941Y-34761D01*
X44011Y-34691D01*
X44049Y-34600D01*
X44049Y-34501D01*
X44049Y-33801D01*
X44011Y-33709D01*
X43941Y-33639D01*
X43850Y-33601D01*
X43751Y-33601D01*
X43051Y-33601D01*
X42959Y-33639D01*
X42889Y-33709D01*
X42851Y-33800D01*
X42851Y-33899D01*
X42851Y-34599D01*
X42889Y-34691D01*
X42959Y-34761D01*
X43017Y-34785D01*
X42942Y-34861D01*
X42914Y-34926D01*
X42914Y-34927D01*
X42889Y-34932D01*
X42795Y-34995D01*
X42794Y-34995D01*
X42794Y-34996D01*
X42595Y-35195D01*
X42532Y-35289D01*
X42510Y-35400D01*
X42510Y-39750D01*
X42532Y-39861D01*
X42595Y-39955D01*
X42695Y-40055D01*
X42789Y-40118D01*
X42900Y-40140D01*
X44000Y-40140D01*
X44111Y-40118D01*
X44205Y-40055D01*
X44468Y-39792D01*
X44534Y-39858D01*
X44625Y-39896D01*
X44724Y-39896D01*
X44788Y-39897D01*
X44850Y-39835D01*
X44850Y-39412D01*
X44850Y-39362D01*
X44850Y-39352D01*
X44860Y-39352D01*
X44860Y-39362D01*
X44860Y-39412D01*
X44860Y-39835D01*
X44922Y-39897D01*
X44986Y-39896D01*
X45085Y-39896D01*
X45148Y-39869D01*
X45155Y-39871D01*
X45155Y-40092D01*
X45107Y-40164D01*
X45085Y-40275D01*
X45085Y-40653D01*
X45059Y-40664D01*
X45000Y-40723D01*
X44941Y-40664D01*
X44849Y-40626D01*
X44692Y-40625D01*
X44630Y-40687D01*
X44630Y-41095D01*
X44630Y-41145D01*
X44630Y-41155D01*
X44630Y-41205D01*
X44630Y-41613D01*
X44667Y-41650D01*
X44630Y-41687D01*
X44630Y-42095D01*
X44630Y-42145D01*
X44630Y-42155D01*
X44620Y-42155D01*
X44620Y-42145D01*
X44620Y-41687D01*
X44583Y-41650D01*
X44620Y-41613D01*
X44620Y-41155D01*
X44620Y-41145D01*
X44620Y-40687D01*
X44558Y-40625D01*
X44401Y-40626D01*
X44309Y-40664D01*
X44239Y-40734D01*
X44201Y-40825D01*
X44201Y-40924D01*
X44200Y-41083D01*
X44262Y-41145D01*
X44620Y-41145D01*
X44620Y-41155D01*
X44262Y-41155D01*
X44200Y-41217D01*
X44201Y-41376D01*
X44201Y-41475D01*
X44239Y-41566D01*
X44309Y-41636D01*
X44342Y-41650D01*
X44309Y-41664D01*
X44239Y-41734D01*
X44201Y-41825D01*
X44201Y-41924D01*
X44200Y-42083D01*
X44262Y-42145D01*
X44620Y-42145D01*
X44620Y-42155D01*
X44570Y-42155D01*
X44262Y-42155D01*
X44200Y-42217D01*
X44201Y-42376D01*
X44201Y-42475D01*
X44239Y-42566D01*
X44309Y-42636D01*
X44342Y-42650D01*
X44309Y-42664D01*
X44239Y-42734D01*
X44201Y-42825D01*
X44201Y-42869D01*
X44139Y-42882D01*
X44045Y-42945D01*
X43650Y-43339D01*
X43650Y-42517D01*
X43650Y-42383D01*
X43649Y-42101D01*
X43611Y-42009D01*
X43541Y-41939D01*
X43450Y-41901D01*
X43351Y-41901D01*
X43067Y-41900D01*
X43005Y-41962D01*
X43005Y-42445D01*
X43588Y-42445D01*
X43650Y-42383D01*
X43650Y-42517D01*
X43588Y-42455D01*
X43005Y-42455D01*
X43005Y-42938D01*
X43067Y-43000D01*
X43351Y-42999D01*
X43450Y-42999D01*
X43541Y-42961D01*
X43611Y-42891D01*
X43649Y-42799D01*
X43650Y-42517D01*
X43650Y-43339D01*
X43631Y-43358D01*
X43611Y-43309D01*
X43541Y-43239D01*
X43450Y-43201D01*
X43351Y-43201D01*
X42995Y-43201D01*
X42995Y-42938D01*
X42995Y-42455D01*
X42995Y-42445D01*
X42995Y-41962D01*
X42933Y-41900D01*
X42649Y-41901D01*
X42550Y-41901D01*
X42459Y-41939D01*
X42389Y-42009D01*
X42351Y-42101D01*
X42350Y-42383D01*
X42412Y-42445D01*
X42995Y-42445D01*
X42995Y-42455D01*
X42412Y-42455D01*
X42350Y-42517D01*
X42351Y-42799D01*
X42389Y-42891D01*
X42459Y-42961D01*
X42550Y-42999D01*
X42649Y-42999D01*
X42933Y-43000D01*
X42995Y-42938D01*
X42995Y-43201D01*
X42551Y-43201D01*
X42459Y-43239D01*
X42389Y-43309D01*
X42351Y-43400D01*
X42351Y-43458D01*
X42311Y-43432D01*
X42200Y-43410D01*
X42149Y-43410D01*
X42149Y-43251D01*
X42111Y-43159D01*
X42041Y-43089D01*
X41950Y-43051D01*
X41851Y-43051D01*
X41770Y-43051D01*
X41770Y-41167D01*
X41770Y-41033D01*
X41769Y-40749D01*
X41769Y-40650D01*
X41731Y-40559D01*
X41661Y-40489D01*
X41569Y-40451D01*
X40867Y-40450D01*
X40805Y-40512D01*
X40805Y-41095D01*
X41708Y-41095D01*
X41770Y-41033D01*
X41770Y-41167D01*
X41708Y-41105D01*
X40805Y-41105D01*
X40805Y-41688D01*
X40867Y-41750D01*
X41569Y-41749D01*
X41661Y-41711D01*
X41731Y-41641D01*
X41769Y-41550D01*
X41769Y-41451D01*
X41770Y-41167D01*
X41770Y-43051D01*
X41451Y-43051D01*
X41359Y-43089D01*
X41289Y-43159D01*
X41251Y-43250D01*
X41251Y-43349D01*
X41251Y-44149D01*
X41289Y-44241D01*
X41359Y-44311D01*
X41450Y-44349D01*
X41549Y-44349D01*
X41949Y-44349D01*
X42041Y-44311D01*
X42111Y-44241D01*
X42149Y-44150D01*
X42149Y-44051D01*
X42149Y-44019D01*
X42249Y-44039D01*
X42250Y-44040D01*
X42351Y-44040D01*
X42351Y-44099D01*
X42389Y-44191D01*
X42459Y-44261D01*
X42550Y-44299D01*
X42649Y-44299D01*
X43449Y-44299D01*
X43541Y-44261D01*
X43611Y-44191D01*
X43649Y-44100D01*
X43649Y-44040D01*
X43650Y-44040D01*
X43761Y-44018D01*
X43855Y-43955D01*
X44241Y-43568D01*
X44309Y-43636D01*
X44342Y-43650D01*
X44309Y-43664D01*
X44239Y-43734D01*
X44201Y-43825D01*
X44201Y-43924D01*
X44201Y-44474D01*
X44239Y-44566D01*
X44309Y-44636D01*
X44335Y-44646D01*
X44335Y-44675D01*
X44357Y-44786D01*
X44420Y-44880D01*
X44795Y-45255D01*
X44889Y-45318D01*
X45000Y-45340D01*
X47530Y-45340D01*
X47610Y-45420D01*
X47610Y-45519D01*
X47567Y-45537D01*
X47401Y-45702D01*
X47399Y-45703D01*
X47234Y-45537D01*
X47017Y-45447D01*
X46783Y-45447D01*
X46567Y-45537D01*
X46401Y-45702D01*
X46399Y-45703D01*
X46234Y-45537D01*
X46017Y-45447D01*
X45783Y-45447D01*
X45567Y-45537D01*
X45401Y-45702D01*
X45399Y-45703D01*
X45234Y-45537D01*
X45017Y-45447D01*
X44783Y-45447D01*
X44567Y-45537D01*
X44401Y-45702D01*
X44311Y-45919D01*
X44311Y-46153D01*
X44311Y-46481D01*
X44401Y-46697D01*
X44566Y-46863D01*
X44610Y-46881D01*
X44610Y-46917D01*
X44532Y-46950D01*
X44350Y-47132D01*
X44251Y-47371D01*
X44251Y-47629D01*
X44350Y-47868D01*
X44427Y-47945D01*
X43373Y-47945D01*
X43450Y-47868D01*
X43549Y-47629D01*
X43549Y-47371D01*
X43450Y-47132D01*
X43268Y-46950D01*
X43190Y-46917D01*
X43190Y-46880D01*
X43233Y-46863D01*
X43399Y-46698D01*
X43489Y-46481D01*
X43489Y-46247D01*
X43489Y-45919D01*
X43399Y-45703D01*
X43234Y-45537D01*
X43017Y-45447D01*
X42783Y-45447D01*
X42567Y-45537D01*
X42401Y-45702D01*
X42394Y-45716D01*
X42275Y-45576D01*
X42065Y-45469D01*
X41999Y-45459D01*
X41905Y-45513D01*
X41905Y-46145D01*
X41905Y-46195D01*
X41905Y-46205D01*
X41895Y-46205D01*
X41895Y-46195D01*
X41895Y-45513D01*
X41801Y-45459D01*
X41735Y-45469D01*
X41525Y-45576D01*
X41400Y-45723D01*
X41275Y-45576D01*
X41250Y-45563D01*
X41250Y-43767D01*
X41250Y-43633D01*
X41249Y-43349D01*
X41249Y-43250D01*
X41211Y-43159D01*
X41141Y-43089D01*
X41049Y-43051D01*
X40867Y-43050D01*
X40805Y-43112D01*
X40805Y-43695D01*
X41188Y-43695D01*
X41250Y-43633D01*
X41250Y-43767D01*
X41188Y-43705D01*
X40805Y-43705D01*
X40805Y-44288D01*
X40867Y-44350D01*
X41049Y-44349D01*
X41141Y-44311D01*
X41211Y-44241D01*
X41249Y-44150D01*
X41249Y-44051D01*
X41250Y-43767D01*
X41250Y-45563D01*
X41065Y-45469D01*
X40999Y-45459D01*
X40905Y-45513D01*
X40905Y-46195D01*
X41300Y-46195D01*
X41500Y-46195D01*
X41895Y-46195D01*
X41895Y-46205D01*
X41845Y-46205D01*
X41500Y-46205D01*
X41300Y-46205D01*
X40955Y-46205D01*
X40905Y-46205D01*
X40895Y-46205D01*
X40895Y-46195D01*
X40895Y-46145D01*
X40895Y-45513D01*
X40801Y-45459D01*
X40795Y-45459D01*
X40795Y-44288D01*
X40795Y-43705D01*
X40795Y-43695D01*
X40795Y-43112D01*
X40795Y-41688D01*
X40795Y-41105D01*
X40795Y-41095D01*
X40795Y-40512D01*
X40733Y-40450D01*
X40031Y-40451D01*
X39939Y-40489D01*
X39869Y-40559D01*
X39831Y-40650D01*
X39831Y-40749D01*
X39830Y-41033D01*
X39892Y-41095D01*
X40795Y-41095D01*
X40795Y-41105D01*
X39892Y-41105D01*
X39830Y-41167D01*
X39831Y-41451D01*
X39831Y-41550D01*
X39869Y-41641D01*
X39939Y-41711D01*
X40031Y-41749D01*
X40733Y-41750D01*
X40795Y-41688D01*
X40795Y-43112D01*
X40733Y-43050D01*
X40551Y-43051D01*
X40459Y-43089D01*
X40389Y-43159D01*
X40351Y-43250D01*
X40351Y-43349D01*
X40350Y-43633D01*
X40412Y-43695D01*
X40795Y-43695D01*
X40795Y-43705D01*
X40412Y-43705D01*
X40350Y-43767D01*
X40351Y-44051D01*
X40351Y-44150D01*
X40389Y-44241D01*
X40459Y-44311D01*
X40551Y-44349D01*
X40733Y-44350D01*
X40795Y-44288D01*
X40795Y-45459D01*
X40735Y-45469D01*
X40525Y-45576D01*
X40404Y-45717D01*
X40399Y-45703D01*
X40234Y-45537D01*
X40190Y-45518D01*
X40190Y-44332D01*
X40241Y-44311D01*
X40311Y-44241D01*
X40349Y-44150D01*
X40349Y-44051D01*
X40349Y-43251D01*
X40311Y-43159D01*
X40241Y-43089D01*
X40150Y-43051D01*
X40051Y-43051D01*
X39651Y-43051D01*
X39559Y-43089D01*
X39489Y-43159D01*
X39451Y-43250D01*
X39451Y-43349D01*
X39451Y-43460D01*
X39250Y-43460D01*
X39250Y-42517D01*
X39250Y-42383D01*
X39249Y-42101D01*
X39211Y-42009D01*
X39141Y-41939D01*
X39050Y-41901D01*
X38951Y-41901D01*
X38667Y-41900D01*
X38605Y-41962D01*
X38605Y-42445D01*
X39188Y-42445D01*
X39250Y-42383D01*
X39250Y-42517D01*
X39188Y-42455D01*
X38605Y-42455D01*
X38605Y-42938D01*
X38667Y-43000D01*
X38951Y-42999D01*
X39050Y-42999D01*
X39141Y-42961D01*
X39211Y-42891D01*
X39249Y-42799D01*
X39250Y-42517D01*
X39250Y-43460D01*
X39249Y-43460D01*
X39249Y-43401D01*
X39211Y-43309D01*
X39141Y-43239D01*
X39050Y-43201D01*
X38951Y-43201D01*
X38595Y-43201D01*
X38595Y-42938D01*
X38595Y-42455D01*
X38595Y-42445D01*
X38595Y-41962D01*
X38533Y-41900D01*
X38249Y-41901D01*
X38150Y-41901D01*
X38059Y-41939D01*
X37989Y-42009D01*
X37951Y-42101D01*
X37950Y-42383D01*
X38012Y-42445D01*
X38595Y-42445D01*
X38595Y-42455D01*
X38012Y-42455D01*
X37950Y-42517D01*
X37951Y-42799D01*
X37989Y-42891D01*
X38059Y-42961D01*
X38150Y-42999D01*
X38249Y-42999D01*
X38533Y-43000D01*
X38595Y-42938D01*
X38595Y-43201D01*
X38151Y-43201D01*
X38059Y-43239D01*
X37989Y-43309D01*
X37951Y-43400D01*
X37951Y-43499D01*
X37951Y-44099D01*
X37989Y-44191D01*
X38059Y-44261D01*
X38150Y-44299D01*
X38249Y-44299D01*
X39049Y-44299D01*
X39141Y-44261D01*
X39211Y-44191D01*
X39249Y-44100D01*
X39249Y-44040D01*
X39451Y-44040D01*
X39451Y-44149D01*
X39489Y-44241D01*
X39559Y-44311D01*
X39610Y-44332D01*
X39610Y-45519D01*
X39567Y-45537D01*
X39401Y-45702D01*
X39399Y-45703D01*
X39234Y-45537D01*
X39017Y-45447D01*
X38783Y-45447D01*
X38567Y-45537D01*
X38401Y-45702D01*
X38399Y-45703D01*
X38234Y-45537D01*
X38017Y-45447D01*
X37783Y-45447D01*
X37567Y-45537D01*
X37401Y-45702D01*
X37311Y-45919D01*
X37311Y-46153D01*
X37311Y-46481D01*
X37401Y-46697D01*
X37566Y-46863D01*
X37610Y-46881D01*
X37610Y-46917D01*
X37532Y-46950D01*
X37350Y-47132D01*
X37251Y-47371D01*
X37251Y-47629D01*
X37350Y-47868D01*
X37427Y-47945D01*
X35835Y-47945D01*
X35835Y-46732D01*
X35835Y-30282D01*
X35692Y-29898D01*
X35651Y-29838D01*
X35501Y-29756D01*
X35494Y-29763D01*
X35494Y-29749D01*
X35412Y-29599D01*
X35040Y-29429D01*
X34632Y-29415D01*
X34248Y-29558D01*
X34188Y-29599D01*
X34106Y-29749D01*
X34800Y-30443D01*
X35494Y-29749D01*
X35494Y-29763D01*
X34807Y-30450D01*
X35501Y-31144D01*
X35651Y-31062D01*
X35821Y-30690D01*
X35835Y-30282D01*
X35835Y-46732D01*
X35692Y-46348D01*
X35651Y-46288D01*
X35501Y-46206D01*
X35494Y-46213D01*
X35494Y-46199D01*
X35494Y-31151D01*
X34800Y-30457D01*
X34793Y-30464D01*
X34793Y-30450D01*
X34099Y-29756D01*
X33949Y-29838D01*
X33779Y-30210D01*
X33765Y-30618D01*
X33908Y-31002D01*
X33949Y-31062D01*
X34099Y-31144D01*
X34793Y-30450D01*
X34793Y-30464D01*
X34106Y-31151D01*
X34188Y-31301D01*
X34560Y-31471D01*
X34968Y-31485D01*
X35352Y-31342D01*
X35412Y-31301D01*
X35494Y-31151D01*
X35494Y-46199D01*
X35412Y-46049D01*
X35040Y-45879D01*
X34632Y-45865D01*
X34248Y-46008D01*
X34188Y-46049D01*
X34106Y-46199D01*
X34800Y-46893D01*
X35494Y-46199D01*
X35494Y-46213D01*
X34807Y-46900D01*
X35501Y-47594D01*
X35651Y-47512D01*
X35821Y-47140D01*
X35835Y-46732D01*
X35835Y-47945D01*
X35494Y-47945D01*
X35494Y-47601D01*
X34800Y-46907D01*
X34793Y-46914D01*
X34793Y-46900D01*
X34099Y-46206D01*
X33949Y-46288D01*
X33779Y-46660D01*
X33765Y-47068D01*
X33908Y-47452D01*
X33949Y-47512D01*
X34099Y-47594D01*
X34793Y-46900D01*
X34793Y-46914D01*
X34106Y-47601D01*
X34188Y-47751D01*
X34560Y-47921D01*
X34968Y-47935D01*
X35352Y-47792D01*
X35412Y-47751D01*
X35494Y-47601D01*
X35494Y-47945D01*
X33255Y-47945D01*
X33255Y-25455D01*
X33827Y-25455D01*
X33750Y-25532D01*
X33651Y-25771D01*
X33651Y-26029D01*
X33750Y-26268D01*
X33932Y-26450D01*
X34010Y-26482D01*
X34010Y-26519D01*
X33967Y-26537D01*
X33801Y-26702D01*
X33711Y-26919D01*
X33711Y-27153D01*
X33711Y-27481D01*
X33801Y-27697D01*
X33966Y-27863D01*
X34183Y-27953D01*
X34417Y-27953D01*
X34633Y-27863D01*
X34799Y-27698D01*
X34805Y-27683D01*
X34925Y-27824D01*
X35135Y-27931D01*
X35201Y-27941D01*
X35295Y-27887D01*
X35295Y-27255D01*
X35295Y-27205D01*
X35295Y-27195D01*
X35305Y-27195D01*
X35305Y-27205D01*
X35305Y-27255D01*
X35305Y-27887D01*
X35399Y-27941D01*
X35465Y-27931D01*
X35675Y-27824D01*
X35795Y-27682D01*
X35801Y-27697D01*
X35966Y-27863D01*
X36183Y-27953D01*
X36417Y-27953D01*
X36633Y-27863D01*
X36799Y-27698D01*
X36800Y-27695D01*
X36801Y-27697D01*
X36966Y-27863D01*
X37183Y-27953D01*
X37417Y-27953D01*
X37633Y-27863D01*
X37799Y-27698D01*
X37800Y-27695D01*
X37801Y-27697D01*
X37966Y-27863D01*
X38183Y-27953D01*
X38417Y-27953D01*
X38633Y-27863D01*
X38799Y-27698D01*
X38800Y-27695D01*
X38801Y-27697D01*
X38966Y-27863D01*
X39183Y-27953D01*
X39417Y-27953D01*
X39633Y-27863D01*
X39799Y-27698D01*
X39800Y-27695D01*
X39801Y-27697D01*
X39966Y-27863D01*
X40183Y-27953D01*
X40417Y-27953D01*
X40633Y-27863D01*
X40799Y-27698D01*
X40800Y-27695D01*
X40801Y-27697D01*
X40966Y-27863D01*
X41183Y-27953D01*
X41417Y-27953D01*
X41633Y-27863D01*
X41799Y-27698D01*
X41889Y-27481D01*
X41889Y-27247D01*
X41889Y-26919D01*
X41799Y-26703D01*
X41634Y-26537D01*
X41590Y-26518D01*
X41590Y-26482D01*
X41668Y-26450D01*
X41850Y-26268D01*
X41949Y-26029D01*
X41949Y-25771D01*
X41850Y-25532D01*
X41773Y-25455D01*
X42427Y-25455D01*
X42350Y-25532D01*
X42251Y-25771D01*
X42251Y-26029D01*
X42350Y-26268D01*
X42532Y-26450D01*
X42610Y-26482D01*
X42610Y-26519D01*
X42567Y-26537D01*
X42401Y-26702D01*
X42311Y-26919D01*
X42311Y-27153D01*
X42311Y-27481D01*
X42401Y-27697D01*
X42566Y-27863D01*
X42783Y-27953D01*
X43017Y-27953D01*
X43233Y-27863D01*
X43399Y-27698D01*
X43400Y-27695D01*
X43401Y-27697D01*
X43566Y-27863D01*
X43783Y-27953D01*
X44017Y-27953D01*
X44233Y-27863D01*
X44399Y-27698D01*
X44400Y-27695D01*
X44401Y-27697D01*
X44566Y-27863D01*
X44783Y-27953D01*
X45017Y-27953D01*
X45233Y-27863D01*
X45399Y-27698D01*
X45400Y-27695D01*
X45401Y-27697D01*
X45566Y-27863D01*
X45783Y-27953D01*
X46017Y-27953D01*
X46233Y-27863D01*
X46399Y-27698D01*
X46400Y-27695D01*
X46401Y-27697D01*
X46566Y-27863D01*
X46783Y-27953D01*
X47017Y-27953D01*
X47233Y-27863D01*
X47399Y-27698D01*
X47400Y-27695D01*
X47401Y-27697D01*
X47566Y-27863D01*
X47783Y-27953D01*
X48017Y-27953D01*
X48233Y-27863D01*
X48399Y-27698D01*
X48400Y-27695D01*
X48401Y-27697D01*
X48566Y-27863D01*
X48783Y-27953D01*
X49017Y-27953D01*
X49233Y-27863D01*
X49399Y-27698D01*
X49400Y-27695D01*
X49401Y-27697D01*
X49566Y-27863D01*
X49783Y-27953D01*
X50017Y-27953D01*
X50233Y-27863D01*
X50399Y-27698D01*
X50489Y-27481D01*
X50489Y-27247D01*
X50489Y-26919D01*
X50399Y-26703D01*
X50234Y-26537D01*
X50017Y-26447D01*
X49783Y-26447D01*
X49567Y-26537D01*
X49401Y-26702D01*
X49399Y-26703D01*
X49234Y-26537D01*
X49017Y-26447D01*
X48783Y-26447D01*
X48567Y-26537D01*
X48401Y-26702D01*
X48399Y-26703D01*
X48234Y-26537D01*
X48190Y-26518D01*
X48190Y-26482D01*
X48268Y-26450D01*
X48450Y-26268D01*
X48549Y-26029D01*
X48549Y-25771D01*
X48450Y-25532D01*
X48373Y-25455D01*
X51427Y-25455D01*
X51350Y-25532D01*
X51251Y-25771D01*
X51251Y-26029D01*
X51350Y-26268D01*
X51532Y-26450D01*
X51610Y-26482D01*
X51610Y-26519D01*
X51567Y-26537D01*
X51401Y-26702D01*
X51311Y-26919D01*
X51311Y-27153D01*
X51311Y-27481D01*
X51401Y-27697D01*
X51566Y-27863D01*
X51783Y-27953D01*
X52017Y-27953D01*
X52233Y-27863D01*
X52399Y-27698D01*
X52400Y-27695D01*
X52401Y-27697D01*
X52566Y-27863D01*
X52783Y-27953D01*
X53017Y-27953D01*
X53233Y-27863D01*
X53399Y-27698D01*
X53400Y-27695D01*
X53401Y-27697D01*
X53566Y-27863D01*
X53783Y-27953D01*
X54017Y-27953D01*
X54233Y-27863D01*
X54399Y-27698D01*
X54400Y-27695D01*
X54401Y-27697D01*
X54566Y-27863D01*
X54783Y-27953D01*
X55017Y-27953D01*
X55233Y-27863D01*
X55399Y-27698D01*
X55400Y-27695D01*
X55401Y-27697D01*
X55566Y-27863D01*
X55610Y-27881D01*
X55610Y-28580D01*
G54D10*
G36*
X69095Y-46806D02*
X69038Y-46668D01*
X68886Y-46517D01*
X68688Y-46434D01*
X68575Y-46434D01*
X68575Y-46297D01*
X68575Y-45515D01*
X68575Y-45505D01*
X68575Y-44723D01*
X68575Y-28677D01*
X68575Y-27895D01*
X68575Y-27885D01*
X68575Y-27103D01*
X68489Y-27049D01*
X68293Y-27099D01*
X68127Y-27246D01*
X68030Y-27445D01*
X68030Y-27885D01*
X68575Y-27885D01*
X68575Y-27895D01*
X68030Y-27895D01*
X68030Y-28335D01*
X68127Y-28534D01*
X68293Y-28681D01*
X68489Y-28731D01*
X68575Y-28677D01*
X68575Y-44723D01*
X68489Y-44669D01*
X68335Y-44708D01*
X68335Y-30032D01*
X68192Y-29648D01*
X68151Y-29588D01*
X68001Y-29506D01*
X67994Y-29513D01*
X67994Y-29499D01*
X67912Y-29349D01*
X67540Y-29179D01*
X67132Y-29165D01*
X66748Y-29308D01*
X66688Y-29349D01*
X66606Y-29499D01*
X67300Y-30193D01*
X67994Y-29499D01*
X67994Y-29513D01*
X67307Y-30200D01*
X68001Y-30894D01*
X68151Y-30812D01*
X68321Y-30440D01*
X68335Y-30032D01*
X68335Y-44708D01*
X68293Y-44719D01*
X68127Y-44866D01*
X68030Y-45065D01*
X68030Y-45505D01*
X68575Y-45505D01*
X68575Y-45515D01*
X68030Y-45515D01*
X68030Y-45955D01*
X68127Y-46154D01*
X68293Y-46301D01*
X68489Y-46351D01*
X68575Y-46297D01*
X68575Y-46434D01*
X68473Y-46434D01*
X68274Y-46516D01*
X68123Y-46668D01*
X68040Y-46866D01*
X68040Y-47081D01*
X68040Y-47713D01*
X68122Y-47912D01*
X68155Y-47945D01*
X67994Y-47945D01*
X67994Y-30901D01*
X67300Y-30207D01*
X67293Y-30214D01*
X67293Y-30200D01*
X66599Y-29506D01*
X66570Y-29521D01*
X66570Y-28335D01*
X66570Y-27895D01*
X66570Y-27885D01*
X66570Y-27445D01*
X66473Y-27246D01*
X66307Y-27099D01*
X66111Y-27049D01*
X66025Y-27103D01*
X66025Y-27885D01*
X66570Y-27885D01*
X66570Y-27895D01*
X66025Y-27895D01*
X66025Y-28677D01*
X66111Y-28731D01*
X66307Y-28681D01*
X66473Y-28534D01*
X66570Y-28335D01*
X66570Y-29521D01*
X66449Y-29588D01*
X66279Y-29960D01*
X66265Y-30368D01*
X66408Y-30752D01*
X66449Y-30812D01*
X66599Y-30894D01*
X67293Y-30200D01*
X67293Y-30214D01*
X66606Y-30901D01*
X66688Y-31051D01*
X67060Y-31221D01*
X67468Y-31235D01*
X67852Y-31092D01*
X67912Y-31051D01*
X67994Y-30901D01*
X67994Y-47945D01*
X67825Y-47945D01*
X67825Y-39392D01*
X67825Y-39258D01*
X67825Y-33392D01*
X67825Y-33258D01*
X67824Y-33101D01*
X67786Y-33009D01*
X67716Y-32939D01*
X67625Y-32901D01*
X67526Y-32901D01*
X67367Y-32900D01*
X67305Y-32962D01*
X67305Y-33320D01*
X67763Y-33320D01*
X67825Y-33258D01*
X67825Y-33392D01*
X67763Y-33330D01*
X67355Y-33330D01*
X67305Y-33330D01*
X67295Y-33330D01*
X67295Y-33320D01*
X67295Y-32962D01*
X67233Y-32900D01*
X67074Y-32901D01*
X66975Y-32901D01*
X66884Y-32939D01*
X66814Y-33009D01*
X66776Y-33101D01*
X66775Y-33258D01*
X66837Y-33320D01*
X67295Y-33320D01*
X67295Y-33330D01*
X67245Y-33330D01*
X66837Y-33330D01*
X66775Y-33392D01*
X66776Y-33549D01*
X66814Y-33641D01*
X66873Y-33700D01*
X66814Y-33759D01*
X66776Y-33850D01*
X66776Y-33949D01*
X66776Y-34299D01*
X66814Y-34391D01*
X66884Y-34461D01*
X66975Y-34499D01*
X67010Y-34499D01*
X67010Y-34901D01*
X66976Y-34901D01*
X66884Y-34939D01*
X66814Y-35009D01*
X66776Y-35100D01*
X66776Y-35199D01*
X66776Y-35549D01*
X66814Y-35641D01*
X66873Y-35700D01*
X66814Y-35759D01*
X66776Y-35850D01*
X66776Y-35949D01*
X66776Y-36299D01*
X66814Y-36391D01*
X66884Y-36461D01*
X66975Y-36499D01*
X67010Y-36499D01*
X67010Y-36889D01*
X66940Y-36959D01*
X66875Y-37115D01*
X66875Y-37284D01*
X66939Y-37440D01*
X67059Y-37560D01*
X67215Y-37625D01*
X67384Y-37625D01*
X67540Y-37561D01*
X67660Y-37441D01*
X67725Y-37285D01*
X67725Y-37116D01*
X67661Y-36960D01*
X67590Y-36889D01*
X67590Y-36499D01*
X67624Y-36499D01*
X67716Y-36461D01*
X67786Y-36391D01*
X67824Y-36300D01*
X67824Y-36201D01*
X67824Y-35851D01*
X67786Y-35759D01*
X67727Y-35700D01*
X67786Y-35641D01*
X67824Y-35550D01*
X67824Y-35451D01*
X67824Y-35101D01*
X67786Y-35009D01*
X67716Y-34939D01*
X67625Y-34901D01*
X67590Y-34901D01*
X67590Y-34499D01*
X67624Y-34499D01*
X67716Y-34461D01*
X67786Y-34391D01*
X67824Y-34300D01*
X67824Y-34201D01*
X67824Y-33851D01*
X67786Y-33759D01*
X67727Y-33700D01*
X67786Y-33641D01*
X67824Y-33549D01*
X67825Y-33392D01*
X67825Y-39258D01*
X67824Y-39101D01*
X67786Y-39009D01*
X67716Y-38939D01*
X67625Y-38901D01*
X67526Y-38901D01*
X67367Y-38900D01*
X67305Y-38962D01*
X67305Y-39320D01*
X67763Y-39320D01*
X67825Y-39258D01*
X67825Y-39392D01*
X67763Y-39330D01*
X67355Y-39330D01*
X67305Y-39330D01*
X67295Y-39330D01*
X67295Y-39320D01*
X67295Y-38962D01*
X67233Y-38900D01*
X67074Y-38901D01*
X66975Y-38901D01*
X66884Y-38939D01*
X66814Y-39009D01*
X66776Y-39101D01*
X66775Y-39258D01*
X66837Y-39320D01*
X67295Y-39320D01*
X67295Y-39330D01*
X67245Y-39330D01*
X66837Y-39330D01*
X66775Y-39392D01*
X66776Y-39549D01*
X66814Y-39641D01*
X66873Y-39700D01*
X66814Y-39759D01*
X66776Y-39850D01*
X66776Y-39949D01*
X66776Y-40299D01*
X66814Y-40391D01*
X66884Y-40461D01*
X66975Y-40499D01*
X67010Y-40499D01*
X67010Y-40901D01*
X66976Y-40901D01*
X66884Y-40939D01*
X66814Y-41009D01*
X66776Y-41100D01*
X66776Y-41199D01*
X66776Y-41549D01*
X66814Y-41641D01*
X66873Y-41700D01*
X66814Y-41759D01*
X66776Y-41850D01*
X66776Y-41949D01*
X66776Y-42299D01*
X66814Y-42391D01*
X66884Y-42461D01*
X66975Y-42499D01*
X67010Y-42499D01*
X67010Y-42839D01*
X66940Y-42909D01*
X66875Y-43065D01*
X66875Y-43234D01*
X66939Y-43390D01*
X67059Y-43510D01*
X67215Y-43575D01*
X67384Y-43575D01*
X67540Y-43511D01*
X67660Y-43391D01*
X67725Y-43235D01*
X67725Y-43066D01*
X67661Y-42910D01*
X67590Y-42839D01*
X67590Y-42499D01*
X67624Y-42499D01*
X67716Y-42461D01*
X67786Y-42391D01*
X67824Y-42300D01*
X67824Y-42201D01*
X67824Y-41851D01*
X67786Y-41759D01*
X67727Y-41700D01*
X67786Y-41641D01*
X67824Y-41550D01*
X67824Y-41451D01*
X67824Y-41101D01*
X67786Y-41009D01*
X67716Y-40939D01*
X67625Y-40901D01*
X67590Y-40901D01*
X67590Y-40499D01*
X67624Y-40499D01*
X67716Y-40461D01*
X67786Y-40391D01*
X67824Y-40300D01*
X67824Y-40201D01*
X67824Y-39851D01*
X67786Y-39759D01*
X67727Y-39700D01*
X67786Y-39641D01*
X67824Y-39549D01*
X67825Y-39392D01*
X67825Y-47945D01*
X66570Y-47945D01*
X66570Y-45955D01*
X66570Y-45515D01*
X66570Y-45505D01*
X66570Y-45065D01*
X66473Y-44866D01*
X66307Y-44719D01*
X66111Y-44669D01*
X66025Y-44723D01*
X66025Y-45505D01*
X66570Y-45505D01*
X66570Y-45515D01*
X66025Y-45515D01*
X66025Y-46297D01*
X66111Y-46351D01*
X66307Y-46301D01*
X66473Y-46154D01*
X66570Y-45955D01*
X66570Y-47945D01*
X66444Y-47945D01*
X66477Y-47912D01*
X66560Y-47714D01*
X66560Y-47499D01*
X66560Y-46867D01*
X66478Y-46668D01*
X66326Y-46517D01*
X66128Y-46434D01*
X66015Y-46434D01*
X66015Y-46297D01*
X66015Y-45515D01*
X66015Y-45505D01*
X66015Y-44723D01*
X66015Y-28677D01*
X66015Y-27945D01*
X66015Y-27895D01*
X66015Y-27885D01*
X66015Y-27835D01*
X66015Y-27103D01*
X65929Y-27049D01*
X65733Y-27099D01*
X65567Y-27246D01*
X65470Y-27445D01*
X65470Y-27823D01*
X65339Y-27692D01*
X65119Y-27601D01*
X64881Y-27601D01*
X64831Y-27621D01*
X64705Y-27495D01*
X64611Y-27432D01*
X64500Y-27410D01*
X62400Y-27410D01*
X62289Y-27432D01*
X62195Y-27495D01*
X62068Y-27621D01*
X62019Y-27601D01*
X61781Y-27601D01*
X61561Y-27692D01*
X61392Y-27861D01*
X61301Y-28081D01*
X61301Y-28319D01*
X61392Y-28539D01*
X61553Y-28700D01*
X61392Y-28861D01*
X61301Y-29081D01*
X61301Y-29319D01*
X61392Y-29539D01*
X61553Y-29700D01*
X61392Y-29861D01*
X61301Y-30081D01*
X61301Y-30319D01*
X61392Y-30539D01*
X61553Y-30700D01*
X61392Y-30861D01*
X61301Y-31081D01*
X61301Y-31319D01*
X61392Y-31539D01*
X61553Y-31700D01*
X61392Y-31861D01*
X61301Y-32081D01*
X61301Y-32319D01*
X61392Y-32539D01*
X61553Y-32700D01*
X61392Y-32861D01*
X61301Y-33081D01*
X61301Y-33319D01*
X61392Y-33539D01*
X61553Y-33700D01*
X61392Y-33861D01*
X61301Y-34081D01*
X61301Y-34319D01*
X61392Y-34539D01*
X61553Y-34700D01*
X61392Y-34861D01*
X61301Y-35081D01*
X61301Y-35319D01*
X61392Y-35539D01*
X61553Y-35700D01*
X61392Y-35861D01*
X61301Y-36081D01*
X61301Y-36319D01*
X61392Y-36539D01*
X61553Y-36700D01*
X61392Y-36861D01*
X61301Y-37081D01*
X61301Y-37319D01*
X61392Y-37539D01*
X61553Y-37700D01*
X61392Y-37861D01*
X61301Y-38081D01*
X61301Y-38319D01*
X61392Y-38539D01*
X61553Y-38700D01*
X61392Y-38861D01*
X61301Y-39081D01*
X61301Y-39319D01*
X61392Y-39539D01*
X61553Y-39700D01*
X61392Y-39861D01*
X61301Y-40081D01*
X61301Y-40319D01*
X61392Y-40539D01*
X61553Y-40700D01*
X61392Y-40861D01*
X61301Y-41081D01*
X61301Y-41319D01*
X61392Y-41539D01*
X61553Y-41700D01*
X61392Y-41861D01*
X61301Y-42081D01*
X61301Y-42319D01*
X61392Y-42539D01*
X61553Y-42700D01*
X61392Y-42861D01*
X61301Y-43081D01*
X61301Y-43319D01*
X61392Y-43539D01*
X61559Y-43706D01*
X61552Y-43712D01*
X61524Y-43817D01*
X61900Y-44193D01*
X62276Y-43817D01*
X62248Y-43712D01*
X62239Y-43708D01*
X62239Y-43707D01*
X62400Y-43547D01*
X62559Y-43706D01*
X62552Y-43712D01*
X62524Y-43817D01*
X62900Y-44193D01*
X63276Y-43817D01*
X63248Y-43712D01*
X63239Y-43708D01*
X63239Y-43707D01*
X63408Y-43539D01*
X63428Y-43490D01*
X63471Y-43490D01*
X63492Y-43539D01*
X63659Y-43706D01*
X63652Y-43712D01*
X63624Y-43817D01*
X64000Y-44193D01*
X64376Y-43817D01*
X64348Y-43712D01*
X64339Y-43708D01*
X64339Y-43707D01*
X64500Y-43547D01*
X64659Y-43706D01*
X64652Y-43712D01*
X64624Y-43817D01*
X65000Y-44193D01*
X65376Y-43817D01*
X65348Y-43712D01*
X65339Y-43708D01*
X65339Y-43707D01*
X65508Y-43539D01*
X65599Y-43319D01*
X65599Y-43081D01*
X65508Y-42861D01*
X65347Y-42700D01*
X65508Y-42539D01*
X65599Y-42319D01*
X65599Y-42081D01*
X65508Y-41861D01*
X65347Y-41700D01*
X65508Y-41539D01*
X65599Y-41319D01*
X65599Y-41081D01*
X65508Y-40861D01*
X65347Y-40700D01*
X65508Y-40539D01*
X65599Y-40319D01*
X65599Y-40081D01*
X65508Y-39861D01*
X65347Y-39700D01*
X65508Y-39539D01*
X65599Y-39319D01*
X65599Y-39081D01*
X65508Y-38861D01*
X65347Y-38700D01*
X65508Y-38539D01*
X65599Y-38319D01*
X65599Y-38081D01*
X65508Y-37861D01*
X65347Y-37700D01*
X65508Y-37539D01*
X65599Y-37319D01*
X65599Y-37081D01*
X65508Y-36861D01*
X65347Y-36700D01*
X65508Y-36539D01*
X65599Y-36319D01*
X65599Y-36081D01*
X65508Y-35861D01*
X65347Y-35700D01*
X65508Y-35539D01*
X65599Y-35319D01*
X65599Y-35081D01*
X65508Y-34861D01*
X65347Y-34700D01*
X65508Y-34539D01*
X65599Y-34319D01*
X65599Y-34081D01*
X65508Y-33861D01*
X65347Y-33700D01*
X65508Y-33539D01*
X65599Y-33319D01*
X65599Y-33081D01*
X65508Y-32861D01*
X65347Y-32700D01*
X65508Y-32539D01*
X65599Y-32319D01*
X65599Y-32081D01*
X65508Y-31861D01*
X65347Y-31700D01*
X65508Y-31539D01*
X65599Y-31319D01*
X65599Y-31081D01*
X65508Y-30861D01*
X65347Y-30700D01*
X65508Y-30539D01*
X65599Y-30319D01*
X65599Y-30081D01*
X65508Y-29861D01*
X65347Y-29700D01*
X65508Y-29539D01*
X65599Y-29319D01*
X65599Y-29081D01*
X65508Y-28861D01*
X65347Y-28700D01*
X65508Y-28539D01*
X65536Y-28470D01*
X65567Y-28534D01*
X65733Y-28681D01*
X65929Y-28731D01*
X66015Y-28677D01*
X66015Y-44723D01*
X65929Y-44669D01*
X65733Y-44719D01*
X65591Y-44844D01*
X65591Y-44101D01*
X65508Y-43883D01*
X65488Y-43852D01*
X65383Y-43824D01*
X65007Y-44200D01*
X65383Y-44576D01*
X65488Y-44548D01*
X65584Y-44334D01*
X65591Y-44101D01*
X65591Y-44844D01*
X65567Y-44866D01*
X65470Y-45065D01*
X65470Y-45505D01*
X66015Y-45505D01*
X66015Y-45515D01*
X65470Y-45515D01*
X65470Y-45955D01*
X65567Y-46154D01*
X65733Y-46301D01*
X65929Y-46351D01*
X66015Y-46297D01*
X66015Y-46434D01*
X65913Y-46434D01*
X65714Y-46516D01*
X65563Y-46668D01*
X65480Y-46866D01*
X65480Y-47081D01*
X65480Y-47713D01*
X65562Y-47912D01*
X65595Y-47945D01*
X65376Y-47945D01*
X65376Y-44583D01*
X65000Y-44207D01*
X64993Y-44214D01*
X64993Y-44200D01*
X64617Y-43824D01*
X64512Y-43852D01*
X64502Y-43873D01*
X64488Y-43852D01*
X64383Y-43824D01*
X64007Y-44200D01*
X64383Y-44576D01*
X64488Y-44548D01*
X64497Y-44526D01*
X64512Y-44548D01*
X64617Y-44576D01*
X64993Y-44200D01*
X64993Y-44214D01*
X64624Y-44583D01*
X64652Y-44688D01*
X64866Y-44784D01*
X65099Y-44791D01*
X65317Y-44708D01*
X65348Y-44688D01*
X65376Y-44583D01*
X65376Y-47945D01*
X64485Y-47945D01*
X64485Y-46732D01*
X64376Y-46439D01*
X64376Y-44583D01*
X64000Y-44207D01*
X63993Y-44214D01*
X63993Y-44200D01*
X63617Y-43824D01*
X63512Y-43852D01*
X63449Y-43991D01*
X63408Y-43883D01*
X63388Y-43852D01*
X63283Y-43824D01*
X62907Y-44200D01*
X63283Y-44576D01*
X63388Y-44548D01*
X63450Y-44408D01*
X63492Y-44517D01*
X63512Y-44548D01*
X63617Y-44576D01*
X63993Y-44200D01*
X63993Y-44214D01*
X63624Y-44583D01*
X63652Y-44688D01*
X63866Y-44784D01*
X64099Y-44791D01*
X64317Y-44708D01*
X64348Y-44688D01*
X64376Y-44583D01*
X64376Y-46439D01*
X64342Y-46348D01*
X64301Y-46288D01*
X64151Y-46206D01*
X64144Y-46213D01*
X64144Y-46199D01*
X64062Y-46049D01*
X63690Y-45879D01*
X63282Y-45865D01*
X63276Y-45867D01*
X63276Y-44583D01*
X62900Y-44207D01*
X62893Y-44214D01*
X62893Y-44200D01*
X62517Y-43824D01*
X62412Y-43852D01*
X62402Y-43873D01*
X62388Y-43852D01*
X62283Y-43824D01*
X61907Y-44200D01*
X62283Y-44576D01*
X62388Y-44548D01*
X62397Y-44526D01*
X62412Y-44548D01*
X62517Y-44576D01*
X62893Y-44200D01*
X62893Y-44214D01*
X62524Y-44583D01*
X62552Y-44688D01*
X62766Y-44784D01*
X62999Y-44791D01*
X63217Y-44708D01*
X63248Y-44688D01*
X63276Y-44583D01*
X63276Y-45867D01*
X62898Y-46008D01*
X62838Y-46049D01*
X62756Y-46199D01*
X63450Y-46893D01*
X64144Y-46199D01*
X64144Y-46213D01*
X63457Y-46900D01*
X64151Y-47594D01*
X64301Y-47512D01*
X64471Y-47140D01*
X64485Y-46732D01*
X64485Y-47945D01*
X64144Y-47945D01*
X64144Y-47601D01*
X63450Y-46907D01*
X63443Y-46914D01*
X63443Y-46900D01*
X62749Y-46206D01*
X62599Y-46288D01*
X62429Y-46660D01*
X62415Y-47068D01*
X62558Y-47452D01*
X62599Y-47512D01*
X62749Y-47594D01*
X63443Y-46900D01*
X63443Y-46914D01*
X62756Y-47601D01*
X62838Y-47751D01*
X63210Y-47921D01*
X63618Y-47935D01*
X64002Y-47792D01*
X64062Y-47751D01*
X64144Y-47601D01*
X64144Y-47945D01*
X62276Y-47945D01*
X62276Y-44583D01*
X61900Y-44207D01*
X61893Y-44214D01*
X61893Y-44200D01*
X61517Y-43824D01*
X61412Y-43852D01*
X61316Y-44066D01*
X61309Y-44299D01*
X61392Y-44517D01*
X61412Y-44548D01*
X61517Y-44576D01*
X61893Y-44200D01*
X61893Y-44214D01*
X61524Y-44583D01*
X61552Y-44688D01*
X61766Y-44784D01*
X61999Y-44791D01*
X62217Y-44708D01*
X62248Y-44688D01*
X62276Y-44583D01*
X62276Y-47945D01*
X61373Y-47945D01*
X61450Y-47868D01*
X61549Y-47629D01*
X61549Y-47371D01*
X61450Y-47132D01*
X61268Y-46950D01*
X61190Y-46917D01*
X61190Y-46880D01*
X61233Y-46863D01*
X61399Y-46698D01*
X61489Y-46481D01*
X61489Y-46247D01*
X61489Y-45919D01*
X61399Y-45703D01*
X61234Y-45537D01*
X61017Y-45447D01*
X60783Y-45447D01*
X60567Y-45537D01*
X60401Y-45702D01*
X60399Y-45703D01*
X60234Y-45537D01*
X60017Y-45447D01*
X59783Y-45447D01*
X59567Y-45537D01*
X59435Y-45668D01*
X59435Y-30032D01*
X59292Y-29648D01*
X59251Y-29588D01*
X59101Y-29506D01*
X59094Y-29513D01*
X59094Y-29499D01*
X59012Y-29349D01*
X58640Y-29179D01*
X58232Y-29165D01*
X57848Y-29308D01*
X57788Y-29349D01*
X57706Y-29499D01*
X58400Y-30193D01*
X59094Y-29499D01*
X59094Y-29513D01*
X58407Y-30200D01*
X59101Y-30894D01*
X59251Y-30812D01*
X59421Y-30440D01*
X59435Y-30032D01*
X59435Y-45668D01*
X59401Y-45702D01*
X59399Y-45703D01*
X59234Y-45537D01*
X59094Y-45478D01*
X59094Y-30901D01*
X58400Y-30207D01*
X58393Y-30214D01*
X58393Y-30200D01*
X57699Y-29506D01*
X57549Y-29588D01*
X57379Y-29960D01*
X57365Y-30368D01*
X57508Y-30752D01*
X57549Y-30812D01*
X57699Y-30894D01*
X58393Y-30200D01*
X58393Y-30214D01*
X57706Y-30901D01*
X57788Y-31051D01*
X58160Y-31221D01*
X58568Y-31235D01*
X58952Y-31092D01*
X59012Y-31051D01*
X59094Y-30901D01*
X59094Y-45478D01*
X59017Y-45447D01*
X58783Y-45447D01*
X58567Y-45537D01*
X58401Y-45702D01*
X58399Y-45703D01*
X58234Y-45537D01*
X58017Y-45447D01*
X57783Y-45447D01*
X57567Y-45537D01*
X57401Y-45702D01*
X57399Y-45703D01*
X57234Y-45537D01*
X57017Y-45447D01*
X56783Y-45447D01*
X56567Y-45537D01*
X56401Y-45702D01*
X56399Y-45703D01*
X56234Y-45537D01*
X56017Y-45447D01*
X55783Y-45447D01*
X55700Y-45481D01*
X55700Y-36000D01*
X55700Y-32550D01*
X52950Y-32550D01*
X52950Y-31917D01*
X52950Y-31783D01*
X52950Y-30667D01*
X52888Y-30605D01*
X52530Y-30605D01*
X52530Y-31063D01*
X52592Y-31125D01*
X52749Y-31124D01*
X52841Y-31086D01*
X52911Y-31016D01*
X52949Y-30925D01*
X52949Y-30826D01*
X52950Y-30667D01*
X52950Y-31783D01*
X52949Y-31624D01*
X52949Y-31525D01*
X52911Y-31434D01*
X52841Y-31364D01*
X52749Y-31326D01*
X52592Y-31325D01*
X52530Y-31387D01*
X52530Y-31845D01*
X52888Y-31845D01*
X52950Y-31783D01*
X52950Y-31917D01*
X52888Y-31855D01*
X52530Y-31855D01*
X52530Y-32313D01*
X52592Y-32375D01*
X52749Y-32374D01*
X52841Y-32336D01*
X52911Y-32266D01*
X52949Y-32175D01*
X52949Y-32076D01*
X52950Y-31917D01*
X52950Y-32550D01*
X52550Y-32550D01*
X52550Y-33551D01*
X52536Y-33565D01*
X52536Y-33988D01*
X52536Y-34038D01*
X52536Y-34048D01*
X52536Y-34098D01*
X52536Y-34521D01*
X52550Y-34535D01*
X52550Y-36000D01*
X53940Y-36000D01*
X53940Y-36043D01*
X54002Y-36105D01*
X54425Y-36105D01*
X54475Y-36105D01*
X54485Y-36105D01*
X54535Y-36105D01*
X54958Y-36105D01*
X55020Y-36043D01*
X55019Y-36000D01*
X55700Y-36000D01*
X55700Y-45481D01*
X55567Y-45537D01*
X55401Y-45702D01*
X55399Y-45703D01*
X55234Y-45537D01*
X55020Y-45448D01*
X55020Y-37357D01*
X55020Y-37223D01*
X55019Y-37061D01*
X54992Y-36996D01*
X55020Y-36930D01*
X55020Y-36831D01*
X55020Y-36471D01*
X54992Y-36403D01*
X55019Y-36339D01*
X55020Y-36177D01*
X54958Y-36115D01*
X54535Y-36115D01*
X54485Y-36115D01*
X54475Y-36115D01*
X54425Y-36115D01*
X54002Y-36115D01*
X53940Y-36177D01*
X53940Y-36304D01*
X53930Y-36309D01*
X53860Y-36379D01*
X53822Y-36470D01*
X53822Y-36569D01*
X53822Y-36929D01*
X53860Y-37021D01*
X53930Y-37091D01*
X53940Y-37095D01*
X53940Y-37223D01*
X54002Y-37285D01*
X54425Y-37285D01*
X54475Y-37285D01*
X54485Y-37285D01*
X54535Y-37285D01*
X54958Y-37285D01*
X55020Y-37223D01*
X55020Y-37357D01*
X54958Y-37295D01*
X54485Y-37295D01*
X54485Y-37658D01*
X54547Y-37720D01*
X54721Y-37719D01*
X54820Y-37719D01*
X54911Y-37681D01*
X54981Y-37611D01*
X55019Y-37519D01*
X55020Y-37357D01*
X55020Y-45448D01*
X55017Y-45447D01*
X54783Y-45447D01*
X54567Y-45537D01*
X54475Y-45628D01*
X54475Y-37658D01*
X54475Y-37295D01*
X54002Y-37295D01*
X53940Y-37357D01*
X53941Y-37519D01*
X53979Y-37611D01*
X54049Y-37681D01*
X54140Y-37719D01*
X54239Y-37719D01*
X54413Y-37720D01*
X54475Y-37658D01*
X54475Y-45628D01*
X54401Y-45702D01*
X54399Y-45703D01*
X54234Y-45537D01*
X54017Y-45447D01*
X53783Y-45447D01*
X53567Y-45537D01*
X53401Y-45702D01*
X53311Y-45919D01*
X53311Y-46153D01*
X53311Y-46481D01*
X53401Y-46697D01*
X53566Y-46863D01*
X53610Y-46881D01*
X53610Y-46917D01*
X53532Y-46950D01*
X53350Y-47132D01*
X53251Y-47371D01*
X53251Y-47629D01*
X53350Y-47868D01*
X53427Y-47945D01*
X52961Y-47945D01*
X52961Y-39424D01*
X52961Y-39290D01*
X52960Y-39018D01*
X52922Y-38926D01*
X52852Y-38856D01*
X52761Y-38818D01*
X52662Y-38818D01*
X52598Y-38817D01*
X52536Y-38879D01*
X52536Y-39352D01*
X52899Y-39352D01*
X52961Y-39290D01*
X52961Y-39424D01*
X52899Y-39362D01*
X52536Y-39362D01*
X52536Y-39835D01*
X52598Y-39897D01*
X52662Y-39896D01*
X52761Y-39896D01*
X52852Y-39858D01*
X52922Y-39788D01*
X52960Y-39696D01*
X52961Y-39424D01*
X52961Y-47945D01*
X52373Y-47945D01*
X52450Y-47868D01*
X52549Y-47629D01*
X52549Y-47371D01*
X52450Y-47132D01*
X52268Y-46950D01*
X52190Y-46917D01*
X52190Y-46880D01*
X52233Y-46863D01*
X52399Y-46698D01*
X52489Y-46481D01*
X52489Y-46247D01*
X52489Y-45919D01*
X52399Y-45703D01*
X52234Y-45537D01*
X52017Y-45447D01*
X51783Y-45447D01*
X51567Y-45537D01*
X51401Y-45702D01*
X51399Y-45703D01*
X51234Y-45537D01*
X51017Y-45447D01*
X50783Y-45447D01*
X50567Y-45537D01*
X50500Y-45603D01*
X50401Y-45702D01*
X50399Y-45703D01*
X50234Y-45537D01*
X50190Y-45518D01*
X50190Y-42850D01*
X50189Y-42849D01*
X50168Y-42739D01*
X50167Y-42738D01*
X50125Y-42675D01*
X50130Y-42675D01*
X50130Y-42663D01*
X50142Y-42675D01*
X50299Y-42674D01*
X50391Y-42636D01*
X50461Y-42566D01*
X50499Y-42475D01*
X50499Y-42376D01*
X50500Y-42217D01*
X50500Y-42083D01*
X50499Y-41924D01*
X50499Y-41825D01*
X50461Y-41734D01*
X50391Y-41664D01*
X50299Y-41626D01*
X50142Y-41625D01*
X50080Y-41687D01*
X50080Y-42145D01*
X50438Y-42145D01*
X50500Y-42083D01*
X50500Y-42217D01*
X50438Y-42155D01*
X50130Y-42155D01*
X50080Y-42155D01*
X50070Y-42155D01*
X50070Y-42145D01*
X50070Y-42095D01*
X50070Y-41687D01*
X50021Y-41638D01*
X50170Y-41490D01*
X50400Y-41490D01*
X50511Y-41468D01*
X50605Y-41405D01*
X51005Y-41006D01*
X51005Y-41005D01*
X51068Y-40912D01*
X51068Y-40911D01*
X51071Y-40893D01*
X51089Y-40800D01*
X51090Y-40800D01*
X51090Y-40545D01*
X51180Y-40455D01*
X51249Y-40290D01*
X51249Y-40111D01*
X51181Y-39946D01*
X51132Y-39897D01*
X51219Y-39897D01*
X51579Y-39897D01*
X51644Y-39869D01*
X51710Y-39897D01*
X51809Y-39897D01*
X52169Y-39897D01*
X52236Y-39869D01*
X52301Y-39896D01*
X52400Y-39896D01*
X52464Y-39897D01*
X52526Y-39835D01*
X52526Y-39412D01*
X52526Y-39362D01*
X52526Y-39352D01*
X52526Y-39302D01*
X52526Y-38879D01*
X52464Y-38817D01*
X52400Y-38818D01*
X52335Y-38818D01*
X52331Y-38807D01*
X52261Y-38737D01*
X52170Y-38699D01*
X52071Y-38699D01*
X51711Y-38699D01*
X51645Y-38726D01*
X51640Y-38724D01*
X51640Y-38661D01*
X51710Y-38591D01*
X51775Y-38435D01*
X51775Y-38266D01*
X51711Y-38110D01*
X51591Y-37990D01*
X51435Y-37925D01*
X51266Y-37925D01*
X51110Y-37989D01*
X50990Y-38109D01*
X50925Y-38265D01*
X50925Y-38434D01*
X50989Y-38590D01*
X51060Y-38661D01*
X51060Y-38724D01*
X51054Y-38726D01*
X50989Y-38699D01*
X50890Y-38699D01*
X50530Y-38699D01*
X50464Y-38726D01*
X50399Y-38699D01*
X50300Y-38699D01*
X49940Y-38699D01*
X49873Y-38726D01*
X49808Y-38699D01*
X49709Y-38699D01*
X49349Y-38699D01*
X49283Y-38725D01*
X49219Y-38699D01*
X49120Y-38699D01*
X48760Y-38699D01*
X48693Y-38726D01*
X48628Y-38699D01*
X48529Y-38699D01*
X48169Y-38699D01*
X48103Y-38726D01*
X48038Y-38699D01*
X47939Y-38699D01*
X47579Y-38699D01*
X47512Y-38726D01*
X47447Y-38699D01*
X47348Y-38699D01*
X46988Y-38699D01*
X46921Y-38726D01*
X46856Y-38699D01*
X46757Y-38699D01*
X46397Y-38699D01*
X46331Y-38726D01*
X46266Y-38699D01*
X46167Y-38699D01*
X45807Y-38699D01*
X45740Y-38726D01*
X45735Y-38724D01*
X45735Y-38700D01*
X45735Y-38175D01*
X46720Y-37190D01*
X50700Y-37190D01*
X50811Y-37168D01*
X50905Y-37105D01*
X52145Y-35866D01*
X52145Y-35865D01*
X52208Y-35771D01*
X52229Y-35660D01*
X52230Y-35660D01*
X52230Y-34675D01*
X52261Y-34663D01*
X52331Y-34593D01*
X52335Y-34582D01*
X52400Y-34582D01*
X52464Y-34583D01*
X52526Y-34521D01*
X52526Y-34098D01*
X52526Y-34048D01*
X52526Y-34038D01*
X52526Y-33988D01*
X52526Y-33565D01*
X52464Y-33503D01*
X52400Y-33504D01*
X52301Y-33504D01*
X52236Y-33530D01*
X52230Y-33528D01*
X52230Y-32690D01*
X52208Y-32579D01*
X52145Y-32485D01*
X52065Y-32405D01*
X52065Y-32346D01*
X52091Y-32336D01*
X52150Y-32277D01*
X52209Y-32336D01*
X52301Y-32374D01*
X52458Y-32375D01*
X52520Y-32313D01*
X52520Y-31905D01*
X52520Y-31855D01*
X52520Y-31845D01*
X52520Y-31795D01*
X52520Y-31387D01*
X52458Y-31325D01*
X52301Y-31326D01*
X52209Y-31364D01*
X52150Y-31423D01*
X52091Y-31364D01*
X52000Y-31326D01*
X51901Y-31326D01*
X51551Y-31326D01*
X51459Y-31364D01*
X51389Y-31434D01*
X51351Y-31525D01*
X51351Y-31624D01*
X51351Y-32174D01*
X51389Y-32266D01*
X51459Y-32336D01*
X51485Y-32346D01*
X51485Y-32525D01*
X51507Y-32636D01*
X51570Y-32730D01*
X51650Y-32810D01*
X51650Y-32865D01*
X51605Y-32820D01*
X51440Y-32751D01*
X51261Y-32751D01*
X51096Y-32819D01*
X51050Y-32865D01*
X51005Y-32820D01*
X50840Y-32751D01*
X50661Y-32751D01*
X50496Y-32819D01*
X50450Y-32865D01*
X50405Y-32820D01*
X50240Y-32751D01*
X50061Y-32751D01*
X49896Y-32819D01*
X49868Y-32847D01*
X49868Y-32442D01*
X51361Y-30948D01*
X51389Y-31016D01*
X51459Y-31086D01*
X51550Y-31124D01*
X51649Y-31124D01*
X51999Y-31124D01*
X52091Y-31086D01*
X52150Y-31027D01*
X52209Y-31086D01*
X52301Y-31124D01*
X52458Y-31125D01*
X52520Y-31063D01*
X52520Y-30655D01*
X52520Y-30605D01*
X52520Y-30595D01*
X52530Y-30595D01*
X52580Y-30595D01*
X52888Y-30595D01*
X52950Y-30533D01*
X52949Y-30374D01*
X52949Y-30275D01*
X52927Y-30224D01*
X53099Y-30224D01*
X53191Y-30186D01*
X53261Y-30116D01*
X53299Y-30025D01*
X53299Y-29990D01*
X54900Y-29990D01*
X55011Y-29968D01*
X55105Y-29905D01*
X56105Y-28905D01*
X56168Y-28811D01*
X56190Y-28700D01*
X56190Y-27880D01*
X56233Y-27863D01*
X56399Y-27698D01*
X56400Y-27695D01*
X56401Y-27697D01*
X56566Y-27863D01*
X56783Y-27953D01*
X57017Y-27953D01*
X57233Y-27863D01*
X57399Y-27698D01*
X57400Y-27695D01*
X57401Y-27697D01*
X57566Y-27863D01*
X57783Y-27953D01*
X58017Y-27953D01*
X58233Y-27863D01*
X58399Y-27698D01*
X58400Y-27695D01*
X58401Y-27697D01*
X58566Y-27863D01*
X58783Y-27953D01*
X59017Y-27953D01*
X59233Y-27863D01*
X59399Y-27698D01*
X59489Y-27481D01*
X59489Y-27247D01*
X59489Y-26919D01*
X59399Y-26703D01*
X59234Y-26537D01*
X59190Y-26518D01*
X59190Y-26482D01*
X59268Y-26450D01*
X59450Y-26268D01*
X59549Y-26029D01*
X59549Y-25771D01*
X59450Y-25532D01*
X59373Y-25455D01*
X65595Y-25455D01*
X65563Y-25488D01*
X65480Y-25686D01*
X65480Y-25901D01*
X65480Y-26533D01*
X65562Y-26732D01*
X65714Y-26883D01*
X65912Y-26966D01*
X66127Y-26966D01*
X66326Y-26884D01*
X66477Y-26732D01*
X66560Y-26534D01*
X66560Y-26319D01*
X66560Y-25687D01*
X66478Y-25488D01*
X66444Y-25455D01*
X68155Y-25455D01*
X68123Y-25488D01*
X68040Y-25686D01*
X68040Y-25901D01*
X68040Y-26533D01*
X68122Y-26732D01*
X68274Y-26883D01*
X68472Y-26966D01*
X68687Y-26966D01*
X68886Y-26884D01*
X69037Y-26732D01*
X69095Y-26593D01*
X69095Y-27373D01*
X69033Y-27246D01*
X68867Y-27099D01*
X68671Y-27049D01*
X68585Y-27103D01*
X68585Y-27835D01*
X68585Y-27885D01*
X68585Y-27895D01*
X68585Y-27945D01*
X68585Y-28677D01*
X68671Y-28731D01*
X68867Y-28681D01*
X69033Y-28534D01*
X69095Y-28406D01*
X69095Y-44993D01*
X69033Y-44866D01*
X68867Y-44719D01*
X68671Y-44669D01*
X68585Y-44723D01*
X68585Y-45455D01*
X68585Y-45505D01*
X68585Y-45515D01*
X68585Y-45565D01*
X68585Y-46297D01*
X68671Y-46351D01*
X68867Y-46301D01*
X69033Y-46154D01*
X69095Y-46026D01*
X69095Y-46806D01*
X69095Y-46806D01*
G37*
G54D29*
X69095Y-46806D02*
X69038Y-46668D01*
X68886Y-46517D01*
X68688Y-46434D01*
X68575Y-46434D01*
X68575Y-46297D01*
X68575Y-45515D01*
X68575Y-45505D01*
X68575Y-44723D01*
X68575Y-28677D01*
X68575Y-27895D01*
X68575Y-27885D01*
X68575Y-27103D01*
X68489Y-27049D01*
X68293Y-27099D01*
X68127Y-27246D01*
X68030Y-27445D01*
X68030Y-27885D01*
X68575Y-27885D01*
X68575Y-27895D01*
X68030Y-27895D01*
X68030Y-28335D01*
X68127Y-28534D01*
X68293Y-28681D01*
X68489Y-28731D01*
X68575Y-28677D01*
X68575Y-44723D01*
X68489Y-44669D01*
X68335Y-44708D01*
X68335Y-30032D01*
X68192Y-29648D01*
X68151Y-29588D01*
X68001Y-29506D01*
X67994Y-29513D01*
X67994Y-29499D01*
X67912Y-29349D01*
X67540Y-29179D01*
X67132Y-29165D01*
X66748Y-29308D01*
X66688Y-29349D01*
X66606Y-29499D01*
X67300Y-30193D01*
X67994Y-29499D01*
X67994Y-29513D01*
X67307Y-30200D01*
X68001Y-30894D01*
X68151Y-30812D01*
X68321Y-30440D01*
X68335Y-30032D01*
X68335Y-44708D01*
X68293Y-44719D01*
X68127Y-44866D01*
X68030Y-45065D01*
X68030Y-45505D01*
X68575Y-45505D01*
X68575Y-45515D01*
X68030Y-45515D01*
X68030Y-45955D01*
X68127Y-46154D01*
X68293Y-46301D01*
X68489Y-46351D01*
X68575Y-46297D01*
X68575Y-46434D01*
X68473Y-46434D01*
X68274Y-46516D01*
X68123Y-46668D01*
X68040Y-46866D01*
X68040Y-47081D01*
X68040Y-47713D01*
X68122Y-47912D01*
X68155Y-47945D01*
X67994Y-47945D01*
X67994Y-30901D01*
X67300Y-30207D01*
X67293Y-30214D01*
X67293Y-30200D01*
X66599Y-29506D01*
X66570Y-29521D01*
X66570Y-28335D01*
X66570Y-27895D01*
X66570Y-27885D01*
X66570Y-27445D01*
X66473Y-27246D01*
X66307Y-27099D01*
X66111Y-27049D01*
X66025Y-27103D01*
X66025Y-27885D01*
X66570Y-27885D01*
X66570Y-27895D01*
X66025Y-27895D01*
X66025Y-28677D01*
X66111Y-28731D01*
X66307Y-28681D01*
X66473Y-28534D01*
X66570Y-28335D01*
X66570Y-29521D01*
X66449Y-29588D01*
X66279Y-29960D01*
X66265Y-30368D01*
X66408Y-30752D01*
X66449Y-30812D01*
X66599Y-30894D01*
X67293Y-30200D01*
X67293Y-30214D01*
X66606Y-30901D01*
X66688Y-31051D01*
X67060Y-31221D01*
X67468Y-31235D01*
X67852Y-31092D01*
X67912Y-31051D01*
X67994Y-30901D01*
X67994Y-47945D01*
X67825Y-47945D01*
X67825Y-39392D01*
X67825Y-39258D01*
X67825Y-33392D01*
X67825Y-33258D01*
X67824Y-33101D01*
X67786Y-33009D01*
X67716Y-32939D01*
X67625Y-32901D01*
X67526Y-32901D01*
X67367Y-32900D01*
X67305Y-32962D01*
X67305Y-33320D01*
X67763Y-33320D01*
X67825Y-33258D01*
X67825Y-33392D01*
X67763Y-33330D01*
X67355Y-33330D01*
X67305Y-33330D01*
X67295Y-33330D01*
X67295Y-33320D01*
X67295Y-32962D01*
X67233Y-32900D01*
X67074Y-32901D01*
X66975Y-32901D01*
X66884Y-32939D01*
X66814Y-33009D01*
X66776Y-33101D01*
X66775Y-33258D01*
X66837Y-33320D01*
X67295Y-33320D01*
X67295Y-33330D01*
X67245Y-33330D01*
X66837Y-33330D01*
X66775Y-33392D01*
X66776Y-33549D01*
X66814Y-33641D01*
X66873Y-33700D01*
X66814Y-33759D01*
X66776Y-33850D01*
X66776Y-33949D01*
X66776Y-34299D01*
X66814Y-34391D01*
X66884Y-34461D01*
X66975Y-34499D01*
X67010Y-34499D01*
X67010Y-34901D01*
X66976Y-34901D01*
X66884Y-34939D01*
X66814Y-35009D01*
X66776Y-35100D01*
X66776Y-35199D01*
X66776Y-35549D01*
X66814Y-35641D01*
X66873Y-35700D01*
X66814Y-35759D01*
X66776Y-35850D01*
X66776Y-35949D01*
X66776Y-36299D01*
X66814Y-36391D01*
X66884Y-36461D01*
X66975Y-36499D01*
X67010Y-36499D01*
X67010Y-36889D01*
X66940Y-36959D01*
X66875Y-37115D01*
X66875Y-37284D01*
X66939Y-37440D01*
X67059Y-37560D01*
X67215Y-37625D01*
X67384Y-37625D01*
X67540Y-37561D01*
X67660Y-37441D01*
X67725Y-37285D01*
X67725Y-37116D01*
X67661Y-36960D01*
X67590Y-36889D01*
X67590Y-36499D01*
X67624Y-36499D01*
X67716Y-36461D01*
X67786Y-36391D01*
X67824Y-36300D01*
X67824Y-36201D01*
X67824Y-35851D01*
X67786Y-35759D01*
X67727Y-35700D01*
X67786Y-35641D01*
X67824Y-35550D01*
X67824Y-35451D01*
X67824Y-35101D01*
X67786Y-35009D01*
X67716Y-34939D01*
X67625Y-34901D01*
X67590Y-34901D01*
X67590Y-34499D01*
X67624Y-34499D01*
X67716Y-34461D01*
X67786Y-34391D01*
X67824Y-34300D01*
X67824Y-34201D01*
X67824Y-33851D01*
X67786Y-33759D01*
X67727Y-33700D01*
X67786Y-33641D01*
X67824Y-33549D01*
X67825Y-33392D01*
X67825Y-39258D01*
X67824Y-39101D01*
X67786Y-39009D01*
X67716Y-38939D01*
X67625Y-38901D01*
X67526Y-38901D01*
X67367Y-38900D01*
X67305Y-38962D01*
X67305Y-39320D01*
X67763Y-39320D01*
X67825Y-39258D01*
X67825Y-39392D01*
X67763Y-39330D01*
X67355Y-39330D01*
X67305Y-39330D01*
X67295Y-39330D01*
X67295Y-39320D01*
X67295Y-38962D01*
X67233Y-38900D01*
X67074Y-38901D01*
X66975Y-38901D01*
X66884Y-38939D01*
X66814Y-39009D01*
X66776Y-39101D01*
X66775Y-39258D01*
X66837Y-39320D01*
X67295Y-39320D01*
X67295Y-39330D01*
X67245Y-39330D01*
X66837Y-39330D01*
X66775Y-39392D01*
X66776Y-39549D01*
X66814Y-39641D01*
X66873Y-39700D01*
X66814Y-39759D01*
X66776Y-39850D01*
X66776Y-39949D01*
X66776Y-40299D01*
X66814Y-40391D01*
X66884Y-40461D01*
X66975Y-40499D01*
X67010Y-40499D01*
X67010Y-40901D01*
X66976Y-40901D01*
X66884Y-40939D01*
X66814Y-41009D01*
X66776Y-41100D01*
X66776Y-41199D01*
X66776Y-41549D01*
X66814Y-41641D01*
X66873Y-41700D01*
X66814Y-41759D01*
X66776Y-41850D01*
X66776Y-41949D01*
X66776Y-42299D01*
X66814Y-42391D01*
X66884Y-42461D01*
X66975Y-42499D01*
X67010Y-42499D01*
X67010Y-42839D01*
X66940Y-42909D01*
X66875Y-43065D01*
X66875Y-43234D01*
X66939Y-43390D01*
X67059Y-43510D01*
X67215Y-43575D01*
X67384Y-43575D01*
X67540Y-43511D01*
X67660Y-43391D01*
X67725Y-43235D01*
X67725Y-43066D01*
X67661Y-42910D01*
X67590Y-42839D01*
X67590Y-42499D01*
X67624Y-42499D01*
X67716Y-42461D01*
X67786Y-42391D01*
X67824Y-42300D01*
X67824Y-42201D01*
X67824Y-41851D01*
X67786Y-41759D01*
X67727Y-41700D01*
X67786Y-41641D01*
X67824Y-41550D01*
X67824Y-41451D01*
X67824Y-41101D01*
X67786Y-41009D01*
X67716Y-40939D01*
X67625Y-40901D01*
X67590Y-40901D01*
X67590Y-40499D01*
X67624Y-40499D01*
X67716Y-40461D01*
X67786Y-40391D01*
X67824Y-40300D01*
X67824Y-40201D01*
X67824Y-39851D01*
X67786Y-39759D01*
X67727Y-39700D01*
X67786Y-39641D01*
X67824Y-39549D01*
X67825Y-39392D01*
X67825Y-47945D01*
X66570Y-47945D01*
X66570Y-45955D01*
X66570Y-45515D01*
X66570Y-45505D01*
X66570Y-45065D01*
X66473Y-44866D01*
X66307Y-44719D01*
X66111Y-44669D01*
X66025Y-44723D01*
X66025Y-45505D01*
X66570Y-45505D01*
X66570Y-45515D01*
X66025Y-45515D01*
X66025Y-46297D01*
X66111Y-46351D01*
X66307Y-46301D01*
X66473Y-46154D01*
X66570Y-45955D01*
X66570Y-47945D01*
X66444Y-47945D01*
X66477Y-47912D01*
X66560Y-47714D01*
X66560Y-47499D01*
X66560Y-46867D01*
X66478Y-46668D01*
X66326Y-46517D01*
X66128Y-46434D01*
X66015Y-46434D01*
X66015Y-46297D01*
X66015Y-45515D01*
X66015Y-45505D01*
X66015Y-44723D01*
X66015Y-28677D01*
X66015Y-27945D01*
X66015Y-27895D01*
X66015Y-27885D01*
X66015Y-27835D01*
X66015Y-27103D01*
X65929Y-27049D01*
X65733Y-27099D01*
X65567Y-27246D01*
X65470Y-27445D01*
X65470Y-27823D01*
X65339Y-27692D01*
X65119Y-27601D01*
X64881Y-27601D01*
X64831Y-27621D01*
X64705Y-27495D01*
X64611Y-27432D01*
X64500Y-27410D01*
X62400Y-27410D01*
X62289Y-27432D01*
X62195Y-27495D01*
X62068Y-27621D01*
X62019Y-27601D01*
X61781Y-27601D01*
X61561Y-27692D01*
X61392Y-27861D01*
X61301Y-28081D01*
X61301Y-28319D01*
X61392Y-28539D01*
X61553Y-28700D01*
X61392Y-28861D01*
X61301Y-29081D01*
X61301Y-29319D01*
X61392Y-29539D01*
X61553Y-29700D01*
X61392Y-29861D01*
X61301Y-30081D01*
X61301Y-30319D01*
X61392Y-30539D01*
X61553Y-30700D01*
X61392Y-30861D01*
X61301Y-31081D01*
X61301Y-31319D01*
X61392Y-31539D01*
X61553Y-31700D01*
X61392Y-31861D01*
X61301Y-32081D01*
X61301Y-32319D01*
X61392Y-32539D01*
X61553Y-32700D01*
X61392Y-32861D01*
X61301Y-33081D01*
X61301Y-33319D01*
X61392Y-33539D01*
X61553Y-33700D01*
X61392Y-33861D01*
X61301Y-34081D01*
X61301Y-34319D01*
X61392Y-34539D01*
X61553Y-34700D01*
X61392Y-34861D01*
X61301Y-35081D01*
X61301Y-35319D01*
X61392Y-35539D01*
X61553Y-35700D01*
X61392Y-35861D01*
X61301Y-36081D01*
X61301Y-36319D01*
X61392Y-36539D01*
X61553Y-36700D01*
X61392Y-36861D01*
X61301Y-37081D01*
X61301Y-37319D01*
X61392Y-37539D01*
X61553Y-37700D01*
X61392Y-37861D01*
X61301Y-38081D01*
X61301Y-38319D01*
X61392Y-38539D01*
X61553Y-38700D01*
X61392Y-38861D01*
X61301Y-39081D01*
X61301Y-39319D01*
X61392Y-39539D01*
X61553Y-39700D01*
X61392Y-39861D01*
X61301Y-40081D01*
X61301Y-40319D01*
X61392Y-40539D01*
X61553Y-40700D01*
X61392Y-40861D01*
X61301Y-41081D01*
X61301Y-41319D01*
X61392Y-41539D01*
X61553Y-41700D01*
X61392Y-41861D01*
X61301Y-42081D01*
X61301Y-42319D01*
X61392Y-42539D01*
X61553Y-42700D01*
X61392Y-42861D01*
X61301Y-43081D01*
X61301Y-43319D01*
X61392Y-43539D01*
X61559Y-43706D01*
X61552Y-43712D01*
X61524Y-43817D01*
X61900Y-44193D01*
X62276Y-43817D01*
X62248Y-43712D01*
X62239Y-43708D01*
X62239Y-43707D01*
X62400Y-43547D01*
X62559Y-43706D01*
X62552Y-43712D01*
X62524Y-43817D01*
X62900Y-44193D01*
X63276Y-43817D01*
X63248Y-43712D01*
X63239Y-43708D01*
X63239Y-43707D01*
X63408Y-43539D01*
X63428Y-43490D01*
X63471Y-43490D01*
X63492Y-43539D01*
X63659Y-43706D01*
X63652Y-43712D01*
X63624Y-43817D01*
X64000Y-44193D01*
X64376Y-43817D01*
X64348Y-43712D01*
X64339Y-43708D01*
X64339Y-43707D01*
X64500Y-43547D01*
X64659Y-43706D01*
X64652Y-43712D01*
X64624Y-43817D01*
X65000Y-44193D01*
X65376Y-43817D01*
X65348Y-43712D01*
X65339Y-43708D01*
X65339Y-43707D01*
X65508Y-43539D01*
X65599Y-43319D01*
X65599Y-43081D01*
X65508Y-42861D01*
X65347Y-42700D01*
X65508Y-42539D01*
X65599Y-42319D01*
X65599Y-42081D01*
X65508Y-41861D01*
X65347Y-41700D01*
X65508Y-41539D01*
X65599Y-41319D01*
X65599Y-41081D01*
X65508Y-40861D01*
X65347Y-40700D01*
X65508Y-40539D01*
X65599Y-40319D01*
X65599Y-40081D01*
X65508Y-39861D01*
X65347Y-39700D01*
X65508Y-39539D01*
X65599Y-39319D01*
X65599Y-39081D01*
X65508Y-38861D01*
X65347Y-38700D01*
X65508Y-38539D01*
X65599Y-38319D01*
X65599Y-38081D01*
X65508Y-37861D01*
X65347Y-37700D01*
X65508Y-37539D01*
X65599Y-37319D01*
X65599Y-37081D01*
X65508Y-36861D01*
X65347Y-36700D01*
X65508Y-36539D01*
X65599Y-36319D01*
X65599Y-36081D01*
X65508Y-35861D01*
X65347Y-35700D01*
X65508Y-35539D01*
X65599Y-35319D01*
X65599Y-35081D01*
X65508Y-34861D01*
X65347Y-34700D01*
X65508Y-34539D01*
X65599Y-34319D01*
X65599Y-34081D01*
X65508Y-33861D01*
X65347Y-33700D01*
X65508Y-33539D01*
X65599Y-33319D01*
X65599Y-33081D01*
X65508Y-32861D01*
X65347Y-32700D01*
X65508Y-32539D01*
X65599Y-32319D01*
X65599Y-32081D01*
X65508Y-31861D01*
X65347Y-31700D01*
X65508Y-31539D01*
X65599Y-31319D01*
X65599Y-31081D01*
X65508Y-30861D01*
X65347Y-30700D01*
X65508Y-30539D01*
X65599Y-30319D01*
X65599Y-30081D01*
X65508Y-29861D01*
X65347Y-29700D01*
X65508Y-29539D01*
X65599Y-29319D01*
X65599Y-29081D01*
X65508Y-28861D01*
X65347Y-28700D01*
X65508Y-28539D01*
X65536Y-28470D01*
X65567Y-28534D01*
X65733Y-28681D01*
X65929Y-28731D01*
X66015Y-28677D01*
X66015Y-44723D01*
X65929Y-44669D01*
X65733Y-44719D01*
X65591Y-44844D01*
X65591Y-44101D01*
X65508Y-43883D01*
X65488Y-43852D01*
X65383Y-43824D01*
X65007Y-44200D01*
X65383Y-44576D01*
X65488Y-44548D01*
X65584Y-44334D01*
X65591Y-44101D01*
X65591Y-44844D01*
X65567Y-44866D01*
X65470Y-45065D01*
X65470Y-45505D01*
X66015Y-45505D01*
X66015Y-45515D01*
X65470Y-45515D01*
X65470Y-45955D01*
X65567Y-46154D01*
X65733Y-46301D01*
X65929Y-46351D01*
X66015Y-46297D01*
X66015Y-46434D01*
X65913Y-46434D01*
X65714Y-46516D01*
X65563Y-46668D01*
X65480Y-46866D01*
X65480Y-47081D01*
X65480Y-47713D01*
X65562Y-47912D01*
X65595Y-47945D01*
X65376Y-47945D01*
X65376Y-44583D01*
X65000Y-44207D01*
X64993Y-44214D01*
X64993Y-44200D01*
X64617Y-43824D01*
X64512Y-43852D01*
X64502Y-43873D01*
X64488Y-43852D01*
X64383Y-43824D01*
X64007Y-44200D01*
X64383Y-44576D01*
X64488Y-44548D01*
X64497Y-44526D01*
X64512Y-44548D01*
X64617Y-44576D01*
X64993Y-44200D01*
X64993Y-44214D01*
X64624Y-44583D01*
X64652Y-44688D01*
X64866Y-44784D01*
X65099Y-44791D01*
X65317Y-44708D01*
X65348Y-44688D01*
X65376Y-44583D01*
X65376Y-47945D01*
X64485Y-47945D01*
X64485Y-46732D01*
X64376Y-46439D01*
X64376Y-44583D01*
X64000Y-44207D01*
X63993Y-44214D01*
X63993Y-44200D01*
X63617Y-43824D01*
X63512Y-43852D01*
X63449Y-43991D01*
X63408Y-43883D01*
X63388Y-43852D01*
X63283Y-43824D01*
X62907Y-44200D01*
X63283Y-44576D01*
X63388Y-44548D01*
X63450Y-44408D01*
X63492Y-44517D01*
X63512Y-44548D01*
X63617Y-44576D01*
X63993Y-44200D01*
X63993Y-44214D01*
X63624Y-44583D01*
X63652Y-44688D01*
X63866Y-44784D01*
X64099Y-44791D01*
X64317Y-44708D01*
X64348Y-44688D01*
X64376Y-44583D01*
X64376Y-46439D01*
X64342Y-46348D01*
X64301Y-46288D01*
X64151Y-46206D01*
X64144Y-46213D01*
X64144Y-46199D01*
X64062Y-46049D01*
X63690Y-45879D01*
X63282Y-45865D01*
X63276Y-45867D01*
X63276Y-44583D01*
X62900Y-44207D01*
X62893Y-44214D01*
X62893Y-44200D01*
X62517Y-43824D01*
X62412Y-43852D01*
X62402Y-43873D01*
X62388Y-43852D01*
X62283Y-43824D01*
X61907Y-44200D01*
X62283Y-44576D01*
X62388Y-44548D01*
X62397Y-44526D01*
X62412Y-44548D01*
X62517Y-44576D01*
X62893Y-44200D01*
X62893Y-44214D01*
X62524Y-44583D01*
X62552Y-44688D01*
X62766Y-44784D01*
X62999Y-44791D01*
X63217Y-44708D01*
X63248Y-44688D01*
X63276Y-44583D01*
X63276Y-45867D01*
X62898Y-46008D01*
X62838Y-46049D01*
X62756Y-46199D01*
X63450Y-46893D01*
X64144Y-46199D01*
X64144Y-46213D01*
X63457Y-46900D01*
X64151Y-47594D01*
X64301Y-47512D01*
X64471Y-47140D01*
X64485Y-46732D01*
X64485Y-47945D01*
X64144Y-47945D01*
X64144Y-47601D01*
X63450Y-46907D01*
X63443Y-46914D01*
X63443Y-46900D01*
X62749Y-46206D01*
X62599Y-46288D01*
X62429Y-46660D01*
X62415Y-47068D01*
X62558Y-47452D01*
X62599Y-47512D01*
X62749Y-47594D01*
X63443Y-46900D01*
X63443Y-46914D01*
X62756Y-47601D01*
X62838Y-47751D01*
X63210Y-47921D01*
X63618Y-47935D01*
X64002Y-47792D01*
X64062Y-47751D01*
X64144Y-47601D01*
X64144Y-47945D01*
X62276Y-47945D01*
X62276Y-44583D01*
X61900Y-44207D01*
X61893Y-44214D01*
X61893Y-44200D01*
X61517Y-43824D01*
X61412Y-43852D01*
X61316Y-44066D01*
X61309Y-44299D01*
X61392Y-44517D01*
X61412Y-44548D01*
X61517Y-44576D01*
X61893Y-44200D01*
X61893Y-44214D01*
X61524Y-44583D01*
X61552Y-44688D01*
X61766Y-44784D01*
X61999Y-44791D01*
X62217Y-44708D01*
X62248Y-44688D01*
X62276Y-44583D01*
X62276Y-47945D01*
X61373Y-47945D01*
X61450Y-47868D01*
X61549Y-47629D01*
X61549Y-47371D01*
X61450Y-47132D01*
X61268Y-46950D01*
X61190Y-46917D01*
X61190Y-46880D01*
X61233Y-46863D01*
X61399Y-46698D01*
X61489Y-46481D01*
X61489Y-46247D01*
X61489Y-45919D01*
X61399Y-45703D01*
X61234Y-45537D01*
X61017Y-45447D01*
X60783Y-45447D01*
X60567Y-45537D01*
X60401Y-45702D01*
X60399Y-45703D01*
X60234Y-45537D01*
X60017Y-45447D01*
X59783Y-45447D01*
X59567Y-45537D01*
X59435Y-45668D01*
X59435Y-30032D01*
X59292Y-29648D01*
X59251Y-29588D01*
X59101Y-29506D01*
X59094Y-29513D01*
X59094Y-29499D01*
X59012Y-29349D01*
X58640Y-29179D01*
X58232Y-29165D01*
X57848Y-29308D01*
X57788Y-29349D01*
X57706Y-29499D01*
X58400Y-30193D01*
X59094Y-29499D01*
X59094Y-29513D01*
X58407Y-30200D01*
X59101Y-30894D01*
X59251Y-30812D01*
X59421Y-30440D01*
X59435Y-30032D01*
X59435Y-45668D01*
X59401Y-45702D01*
X59399Y-45703D01*
X59234Y-45537D01*
X59094Y-45478D01*
X59094Y-30901D01*
X58400Y-30207D01*
X58393Y-30214D01*
X58393Y-30200D01*
X57699Y-29506D01*
X57549Y-29588D01*
X57379Y-29960D01*
X57365Y-30368D01*
X57508Y-30752D01*
X57549Y-30812D01*
X57699Y-30894D01*
X58393Y-30200D01*
X58393Y-30214D01*
X57706Y-30901D01*
X57788Y-31051D01*
X58160Y-31221D01*
X58568Y-31235D01*
X58952Y-31092D01*
X59012Y-31051D01*
X59094Y-30901D01*
X59094Y-45478D01*
X59017Y-45447D01*
X58783Y-45447D01*
X58567Y-45537D01*
X58401Y-45702D01*
X58399Y-45703D01*
X58234Y-45537D01*
X58017Y-45447D01*
X57783Y-45447D01*
X57567Y-45537D01*
X57401Y-45702D01*
X57399Y-45703D01*
X57234Y-45537D01*
X57017Y-45447D01*
X56783Y-45447D01*
X56567Y-45537D01*
X56401Y-45702D01*
X56399Y-45703D01*
X56234Y-45537D01*
X56017Y-45447D01*
X55783Y-45447D01*
X55700Y-45481D01*
X55700Y-36000D01*
X55700Y-32550D01*
X52950Y-32550D01*
X52950Y-31917D01*
X52950Y-31783D01*
X52950Y-30667D01*
X52888Y-30605D01*
X52530Y-30605D01*
X52530Y-31063D01*
X52592Y-31125D01*
X52749Y-31124D01*
X52841Y-31086D01*
X52911Y-31016D01*
X52949Y-30925D01*
X52949Y-30826D01*
X52950Y-30667D01*
X52950Y-31783D01*
X52949Y-31624D01*
X52949Y-31525D01*
X52911Y-31434D01*
X52841Y-31364D01*
X52749Y-31326D01*
X52592Y-31325D01*
X52530Y-31387D01*
X52530Y-31845D01*
X52888Y-31845D01*
X52950Y-31783D01*
X52950Y-31917D01*
X52888Y-31855D01*
X52530Y-31855D01*
X52530Y-32313D01*
X52592Y-32375D01*
X52749Y-32374D01*
X52841Y-32336D01*
X52911Y-32266D01*
X52949Y-32175D01*
X52949Y-32076D01*
X52950Y-31917D01*
X52950Y-32550D01*
X52550Y-32550D01*
X52550Y-33551D01*
X52536Y-33565D01*
X52536Y-33988D01*
X52536Y-34038D01*
X52536Y-34048D01*
X52536Y-34098D01*
X52536Y-34521D01*
X52550Y-34535D01*
X52550Y-36000D01*
X53940Y-36000D01*
X53940Y-36043D01*
X54002Y-36105D01*
X54425Y-36105D01*
X54475Y-36105D01*
X54485Y-36105D01*
X54535Y-36105D01*
X54958Y-36105D01*
X55020Y-36043D01*
X55019Y-36000D01*
X55700Y-36000D01*
X55700Y-45481D01*
X55567Y-45537D01*
X55401Y-45702D01*
X55399Y-45703D01*
X55234Y-45537D01*
X55020Y-45448D01*
X55020Y-37357D01*
X55020Y-37223D01*
X55019Y-37061D01*
X54992Y-36996D01*
X55020Y-36930D01*
X55020Y-36831D01*
X55020Y-36471D01*
X54992Y-36403D01*
X55019Y-36339D01*
X55020Y-36177D01*
X54958Y-36115D01*
X54535Y-36115D01*
X54485Y-36115D01*
X54475Y-36115D01*
X54425Y-36115D01*
X54002Y-36115D01*
X53940Y-36177D01*
X53940Y-36304D01*
X53930Y-36309D01*
X53860Y-36379D01*
X53822Y-36470D01*
X53822Y-36569D01*
X53822Y-36929D01*
X53860Y-37021D01*
X53930Y-37091D01*
X53940Y-37095D01*
X53940Y-37223D01*
X54002Y-37285D01*
X54425Y-37285D01*
X54475Y-37285D01*
X54485Y-37285D01*
X54535Y-37285D01*
X54958Y-37285D01*
X55020Y-37223D01*
X55020Y-37357D01*
X54958Y-37295D01*
X54485Y-37295D01*
X54485Y-37658D01*
X54547Y-37720D01*
X54721Y-37719D01*
X54820Y-37719D01*
X54911Y-37681D01*
X54981Y-37611D01*
X55019Y-37519D01*
X55020Y-37357D01*
X55020Y-45448D01*
X55017Y-45447D01*
X54783Y-45447D01*
X54567Y-45537D01*
X54475Y-45628D01*
X54475Y-37658D01*
X54475Y-37295D01*
X54002Y-37295D01*
X53940Y-37357D01*
X53941Y-37519D01*
X53979Y-37611D01*
X54049Y-37681D01*
X54140Y-37719D01*
X54239Y-37719D01*
X54413Y-37720D01*
X54475Y-37658D01*
X54475Y-45628D01*
X54401Y-45702D01*
X54399Y-45703D01*
X54234Y-45537D01*
X54017Y-45447D01*
X53783Y-45447D01*
X53567Y-45537D01*
X53401Y-45702D01*
X53311Y-45919D01*
X53311Y-46153D01*
X53311Y-46481D01*
X53401Y-46697D01*
X53566Y-46863D01*
X53610Y-46881D01*
X53610Y-46917D01*
X53532Y-46950D01*
X53350Y-47132D01*
X53251Y-47371D01*
X53251Y-47629D01*
X53350Y-47868D01*
X53427Y-47945D01*
X52961Y-47945D01*
X52961Y-39424D01*
X52961Y-39290D01*
X52960Y-39018D01*
X52922Y-38926D01*
X52852Y-38856D01*
X52761Y-38818D01*
X52662Y-38818D01*
X52598Y-38817D01*
X52536Y-38879D01*
X52536Y-39352D01*
X52899Y-39352D01*
X52961Y-39290D01*
X52961Y-39424D01*
X52899Y-39362D01*
X52536Y-39362D01*
X52536Y-39835D01*
X52598Y-39897D01*
X52662Y-39896D01*
X52761Y-39896D01*
X52852Y-39858D01*
X52922Y-39788D01*
X52960Y-39696D01*
X52961Y-39424D01*
X52961Y-47945D01*
X52373Y-47945D01*
X52450Y-47868D01*
X52549Y-47629D01*
X52549Y-47371D01*
X52450Y-47132D01*
X52268Y-46950D01*
X52190Y-46917D01*
X52190Y-46880D01*
X52233Y-46863D01*
X52399Y-46698D01*
X52489Y-46481D01*
X52489Y-46247D01*
X52489Y-45919D01*
X52399Y-45703D01*
X52234Y-45537D01*
X52017Y-45447D01*
X51783Y-45447D01*
X51567Y-45537D01*
X51401Y-45702D01*
X51399Y-45703D01*
X51234Y-45537D01*
X51017Y-45447D01*
X50783Y-45447D01*
X50567Y-45537D01*
X50500Y-45603D01*
X50401Y-45702D01*
X50399Y-45703D01*
X50234Y-45537D01*
X50190Y-45518D01*
X50190Y-42850D01*
X50189Y-42849D01*
X50168Y-42739D01*
X50167Y-42738D01*
X50125Y-42675D01*
X50130Y-42675D01*
X50130Y-42663D01*
X50142Y-42675D01*
X50299Y-42674D01*
X50391Y-42636D01*
X50461Y-42566D01*
X50499Y-42475D01*
X50499Y-42376D01*
X50500Y-42217D01*
X50500Y-42083D01*
X50499Y-41924D01*
X50499Y-41825D01*
X50461Y-41734D01*
X50391Y-41664D01*
X50299Y-41626D01*
X50142Y-41625D01*
X50080Y-41687D01*
X50080Y-42145D01*
X50438Y-42145D01*
X50500Y-42083D01*
X50500Y-42217D01*
X50438Y-42155D01*
X50130Y-42155D01*
X50080Y-42155D01*
X50070Y-42155D01*
X50070Y-42145D01*
X50070Y-42095D01*
X50070Y-41687D01*
X50021Y-41638D01*
X50170Y-41490D01*
X50400Y-41490D01*
X50511Y-41468D01*
X50605Y-41405D01*
X51005Y-41006D01*
X51005Y-41005D01*
X51068Y-40912D01*
X51068Y-40911D01*
X51071Y-40893D01*
X51089Y-40800D01*
X51090Y-40800D01*
X51090Y-40545D01*
X51180Y-40455D01*
X51249Y-40290D01*
X51249Y-40111D01*
X51181Y-39946D01*
X51132Y-39897D01*
X51219Y-39897D01*
X51579Y-39897D01*
X51644Y-39869D01*
X51710Y-39897D01*
X51809Y-39897D01*
X52169Y-39897D01*
X52236Y-39869D01*
X52301Y-39896D01*
X52400Y-39896D01*
X52464Y-39897D01*
X52526Y-39835D01*
X52526Y-39412D01*
X52526Y-39362D01*
X52526Y-39352D01*
X52526Y-39302D01*
X52526Y-38879D01*
X52464Y-38817D01*
X52400Y-38818D01*
X52335Y-38818D01*
X52331Y-38807D01*
X52261Y-38737D01*
X52170Y-38699D01*
X52071Y-38699D01*
X51711Y-38699D01*
X51645Y-38726D01*
X51640Y-38724D01*
X51640Y-38661D01*
X51710Y-38591D01*
X51775Y-38435D01*
X51775Y-38266D01*
X51711Y-38110D01*
X51591Y-37990D01*
X51435Y-37925D01*
X51266Y-37925D01*
X51110Y-37989D01*
X50990Y-38109D01*
X50925Y-38265D01*
X50925Y-38434D01*
X50989Y-38590D01*
X51060Y-38661D01*
X51060Y-38724D01*
X51054Y-38726D01*
X50989Y-38699D01*
X50890Y-38699D01*
X50530Y-38699D01*
X50464Y-38726D01*
X50399Y-38699D01*
X50300Y-38699D01*
X49940Y-38699D01*
X49873Y-38726D01*
X49808Y-38699D01*
X49709Y-38699D01*
X49349Y-38699D01*
X49283Y-38725D01*
X49219Y-38699D01*
X49120Y-38699D01*
X48760Y-38699D01*
X48693Y-38726D01*
X48628Y-38699D01*
X48529Y-38699D01*
X48169Y-38699D01*
X48103Y-38726D01*
X48038Y-38699D01*
X47939Y-38699D01*
X47579Y-38699D01*
X47512Y-38726D01*
X47447Y-38699D01*
X47348Y-38699D01*
X46988Y-38699D01*
X46921Y-38726D01*
X46856Y-38699D01*
X46757Y-38699D01*
X46397Y-38699D01*
X46331Y-38726D01*
X46266Y-38699D01*
X46167Y-38699D01*
X45807Y-38699D01*
X45740Y-38726D01*
X45735Y-38724D01*
X45735Y-38700D01*
X45735Y-38175D01*
X46720Y-37190D01*
X50700Y-37190D01*
X50811Y-37168D01*
X50905Y-37105D01*
X52145Y-35866D01*
X52145Y-35865D01*
X52208Y-35771D01*
X52229Y-35660D01*
X52230Y-35660D01*
X52230Y-34675D01*
X52261Y-34663D01*
X52331Y-34593D01*
X52335Y-34582D01*
X52400Y-34582D01*
X52464Y-34583D01*
X52526Y-34521D01*
X52526Y-34098D01*
X52526Y-34048D01*
X52526Y-34038D01*
X52526Y-33988D01*
X52526Y-33565D01*
X52464Y-33503D01*
X52400Y-33504D01*
X52301Y-33504D01*
X52236Y-33530D01*
X52230Y-33528D01*
X52230Y-32690D01*
X52208Y-32579D01*
X52145Y-32485D01*
X52065Y-32405D01*
X52065Y-32346D01*
X52091Y-32336D01*
X52150Y-32277D01*
X52209Y-32336D01*
X52301Y-32374D01*
X52458Y-32375D01*
X52520Y-32313D01*
X52520Y-31905D01*
X52520Y-31855D01*
X52520Y-31845D01*
X52520Y-31795D01*
X52520Y-31387D01*
X52458Y-31325D01*
X52301Y-31326D01*
X52209Y-31364D01*
X52150Y-31423D01*
X52091Y-31364D01*
X52000Y-31326D01*
X51901Y-31326D01*
X51551Y-31326D01*
X51459Y-31364D01*
X51389Y-31434D01*
X51351Y-31525D01*
X51351Y-31624D01*
X51351Y-32174D01*
X51389Y-32266D01*
X51459Y-32336D01*
X51485Y-32346D01*
X51485Y-32525D01*
X51507Y-32636D01*
X51570Y-32730D01*
X51650Y-32810D01*
X51650Y-32865D01*
X51605Y-32820D01*
X51440Y-32751D01*
X51261Y-32751D01*
X51096Y-32819D01*
X51050Y-32865D01*
X51005Y-32820D01*
X50840Y-32751D01*
X50661Y-32751D01*
X50496Y-32819D01*
X50450Y-32865D01*
X50405Y-32820D01*
X50240Y-32751D01*
X50061Y-32751D01*
X49896Y-32819D01*
X49868Y-32847D01*
X49868Y-32442D01*
X51361Y-30948D01*
X51389Y-31016D01*
X51459Y-31086D01*
X51550Y-31124D01*
X51649Y-31124D01*
X51999Y-31124D01*
X52091Y-31086D01*
X52150Y-31027D01*
X52209Y-31086D01*
X52301Y-31124D01*
X52458Y-31125D01*
X52520Y-31063D01*
X52520Y-30655D01*
X52520Y-30605D01*
X52520Y-30595D01*
X52530Y-30595D01*
X52580Y-30595D01*
X52888Y-30595D01*
X52950Y-30533D01*
X52949Y-30374D01*
X52949Y-30275D01*
X52927Y-30224D01*
X53099Y-30224D01*
X53191Y-30186D01*
X53261Y-30116D01*
X53299Y-30025D01*
X53299Y-29990D01*
X54900Y-29990D01*
X55011Y-29968D01*
X55105Y-29905D01*
X56105Y-28905D01*
X56168Y-28811D01*
X56190Y-28700D01*
X56190Y-27880D01*
X56233Y-27863D01*
X56399Y-27698D01*
X56400Y-27695D01*
X56401Y-27697D01*
X56566Y-27863D01*
X56783Y-27953D01*
X57017Y-27953D01*
X57233Y-27863D01*
X57399Y-27698D01*
X57400Y-27695D01*
X57401Y-27697D01*
X57566Y-27863D01*
X57783Y-27953D01*
X58017Y-27953D01*
X58233Y-27863D01*
X58399Y-27698D01*
X58400Y-27695D01*
X58401Y-27697D01*
X58566Y-27863D01*
X58783Y-27953D01*
X59017Y-27953D01*
X59233Y-27863D01*
X59399Y-27698D01*
X59489Y-27481D01*
X59489Y-27247D01*
X59489Y-26919D01*
X59399Y-26703D01*
X59234Y-26537D01*
X59190Y-26518D01*
X59190Y-26482D01*
X59268Y-26450D01*
X59450Y-26268D01*
X59549Y-26029D01*
X59549Y-25771D01*
X59450Y-25532D01*
X59373Y-25455D01*
X65595Y-25455D01*
X65563Y-25488D01*
X65480Y-25686D01*
X65480Y-25901D01*
X65480Y-26533D01*
X65562Y-26732D01*
X65714Y-26883D01*
X65912Y-26966D01*
X66127Y-26966D01*
X66326Y-26884D01*
X66477Y-26732D01*
X66560Y-26534D01*
X66560Y-26319D01*
X66560Y-25687D01*
X66478Y-25488D01*
X66444Y-25455D01*
X68155Y-25455D01*
X68123Y-25488D01*
X68040Y-25686D01*
X68040Y-25901D01*
X68040Y-26533D01*
X68122Y-26732D01*
X68274Y-26883D01*
X68472Y-26966D01*
X68687Y-26966D01*
X68886Y-26884D01*
X69037Y-26732D01*
X69095Y-26593D01*
X69095Y-27373D01*
X69033Y-27246D01*
X68867Y-27099D01*
X68671Y-27049D01*
X68585Y-27103D01*
X68585Y-27835D01*
X68585Y-27885D01*
X68585Y-27895D01*
X68585Y-27945D01*
X68585Y-28677D01*
X68671Y-28731D01*
X68867Y-28681D01*
X69033Y-28534D01*
X69095Y-28406D01*
X69095Y-44993D01*
X69033Y-44866D01*
X68867Y-44719D01*
X68671Y-44669D01*
X68585Y-44723D01*
X68585Y-45455D01*
X68585Y-45505D01*
X68585Y-45515D01*
X68585Y-45565D01*
X68585Y-46297D01*
X68671Y-46351D01*
X68867Y-46301D01*
X69033Y-46154D01*
X69095Y-46026D01*
X69095Y-46806D01*
M02*
